<svg xmlns="http://www.w3.org/2000/svg" width="80" height="66" viewBox="0 0 80 66" fill="none">
<path d="M25.3449 4.73527C25.1719 4.56777 24.8243 2.21949 24.5091 2.23839C24.1937 2.2573 23.9185 4.58621 23.7702 4.7398C23.4749 5.0473 21.3096 5.26543 21.3273 5.56418C21.3449 5.86168 23.471 6.00261 23.7716 6.29339C23.9396 6.45574 24.2912 8.81089 24.6077 8.79183C24.9229 8.77386 25.193 6.45074 25.3466 6.2923C25.6316 5.99527 27.814 5.76527 27.7963 5.46605C27.7787 5.16652 25.634 5.01636 25.3449 4.73527Z" fill="#074785"/>
<path d="M12.9385 2.62964C12.7655 2.46246 12.4179 0.114174 12.1027 0.132924C11.7869 0.152143 11.5116 2.48089 11.3646 2.63464C11.0685 2.94199 8.90289 3.15996 8.92101 3.45855C8.93836 3.75621 11.0648 3.89683 11.3651 4.18777C11.5327 4.35011 11.8854 6.70512 12.2016 6.68668C12.516 6.66824 12.7863 4.34558 12.9398 4.18683C13.2255 3.8898 15.4076 3.65996 15.3902 3.36074C15.3724 3.06136 13.2271 2.91136 12.9385 2.62964Z" fill="#7BEFE5"/>
<path d="M0.000146226 15.306C0.0203025 14.9665 1.91577 14.7577 2.9603 14.4895C2.55921 13.4637 1.61015 11.7835 1.89124 11.591C2.12968 11.4285 3.11905 12.3915 3.93343 13.0912C4.18983 12.0102 4.50952 10.5663 4.80952 10.5841C5.14843 10.6046 5.45577 12.4459 5.6803 13.5124C6.69999 13.0646 8.37717 12.2265 8.56796 12.5062C8.73624 12.7532 7.7728 13.8456 7.05764 14.6698C8.11702 14.926 9.48124 15.1621 9.46421 15.4493C9.44436 15.7902 7.53296 15.9906 6.49311 16.2659C6.88858 17.2916 7.84921 18.9727 7.56796 19.1651C7.33061 19.3266 6.35405 18.3701 5.54171 17.6732C5.28593 18.7534 4.96405 20.189 4.66483 20.1716C4.32671 20.152 4.02389 18.3154 3.79796 17.2487C2.77983 17.6959 1.08874 18.539 0.896708 18.2581C0.727333 18.011 1.69733 16.9179 2.41233 16.0929C1.35124 15.837 -0.01626 15.5935 0.000146226 15.306Z" fill="#F9D555"/>
<path fill-rule="evenodd" clip-rule="evenodd" d="M35.7771 20.0658C31.9918 18.5835 28.0077 18.1749 24.1918 18.7127C21.6999 18.9718 17.8221 20.3188 15.7055 21.6605C12.3787 23.604 9.50584 26.3944 7.45475 29.9043C6.17194 32.2283 6.29928 35.1022 7.39069 36.0861L22.0377 51.9962L22.5876 52.4263L22.8769 52.9077L25.8054 56.0886L26.4549 56.5115L26.6166 56.9699L33.6532 64.6132C35.3169 66.6397 36.6883 66.1633 36.7377 63.5416L37.5276 53.0896L37.4052 52.6129L37.6169 51.9065L37.9465 47.5463L37.8915 47.0166L38.043 46.2682L39.6596 24.8771C39.9054 23.428 38.2248 21.0944 35.7771 20.0658Z" fill="#A089E4"/>
<path fill-rule="evenodd" clip-rule="evenodd" d="M36.229 24.3873C36.2966 27.1279 30.5691 29.5142 24.0005 31.8503C17.3988 34.0892 11.4255 35.7673 9.77974 33.5751C8.12833 31.4533 12.5597 25.4003 20.7733 22.5597C28.9796 19.6967 36.2091 21.6989 36.229 24.3873Z" fill="#F9D555"/>
<path d="M30.5593 14.1814C29.1658 13.095 27.41 12.7561 25.6861 13.0382C25.4558 13.0757 25.2284 13.1253 25.0056 13.1847C25.0211 13.1064 25.0423 13.0278 25.0728 12.9493C25.6062 11.5781 27.3884 10.925 28.6868 10.5978C29.3807 10.4226 30.1423 10.3484 30.8554 10.4304C31.8928 10.5501 32.2706 8.95403 31.2215 8.83309C28.4259 8.51028 24.3984 9.68403 23.4518 12.662C23.3214 13.0729 23.3029 13.4786 23.3659 13.8711C22.592 14.3322 21.9272 14.9629 21.4436 15.7662C20.5233 17.2954 20.6965 19.3201 21.6604 20.7729C21.8879 21.1159 22.1828 21.4328 22.5228 21.7112C22.5034 21.7701 22.4842 21.8289 22.4668 21.8875C21.822 24.0604 22.6558 26.7076 24.2045 28.2959C24.9448 29.055 26.0618 27.8548 25.3275 27.1011C24.1928 25.9382 23.7153 24.155 24.0061 22.5604C25.1128 22.9711 26.3475 22.9954 27.3293 22.3901C28.7784 21.4965 27.9858 19.5386 26.6786 18.9993C25.3065 18.4334 24.1051 19.1468 23.3086 20.2118C22.0658 18.9604 22.3189 16.9361 23.5265 15.7526C23.6723 15.6098 23.8314 15.4806 24.0008 15.3647C24.3689 15.9017 24.8458 16.3764 25.3168 16.7551C26.8481 17.9828 28.8662 18.725 30.7323 17.8472C32.5125 17.0097 31.7517 15.1106 30.5593 14.1814ZM26.4526 20.8768C26.5447 21.0293 26.3284 21.114 26.0059 21.1665C25.5729 21.2365 25.1318 21.1918 24.7142 21.0631C25.2373 20.4701 25.9709 20.0815 26.4526 20.8768ZM27.9534 16.4115C27.2411 16.185 26.1347 15.5336 25.4903 14.7198C26.4503 14.4901 27.4933 14.5286 28.3651 14.8086C28.964 15.0007 29.8761 15.4998 30.152 16.102C30.4787 16.8161 28.2493 16.5056 27.9534 16.4115Z" fill="#FD6085"/>
<path d="M18.9055 19.4045C17.512 19.1227 16.0612 18.452 15.9401 16.863C15.9365 16.8172 15.9356 16.7638 15.9365 16.7066C17.4298 17.1511 19.2885 17.1442 19.4452 15.2417C19.5457 14.0169 18.254 13.3678 17.2265 13.2827C16.2216 13.1994 15.4927 13.682 14.9999 14.4144C14.1899 13.58 14.317 11.9603 14.9037 11.0599C15.4813 10.172 14.0321 9.40408 13.4606 10.2819C12.2852 12.087 12.6704 14.6935 14.359 15.9642C13.8093 18.6055 16.0748 20.5033 18.539 21.0024C19.5734 21.2114 19.9418 19.6145 18.9055 19.4045ZM16.8031 14.9124C17.0174 14.8827 18.0221 14.9436 17.8076 15.2731C17.7998 15.2852 17.7276 15.3172 17.6123 15.3291C17.3512 15.356 17.097 15.3089 16.842 15.2572C16.6956 15.2277 16.5526 15.1886 16.4109 15.1453C16.5202 15.0208 16.6493 14.9338 16.8031 14.9124Z" fill="#FFA4AC"/>
<path d="M15.0029 22.694C14.1523 21.873 12.9409 21.4182 11.7863 21.2602C9.66055 20.9699 7.6693 21.6624 5.80352 22.6169C4.86133 23.099 5.73977 24.4832 6.67367 24.0055C8.37242 23.1365 10.628 22.4161 12.4973 23.0663C11.7573 23.3521 11.0945 23.8077 10.6379 24.463C9.82195 25.6355 9.79226 27.1169 11.0463 27.9575C12.0409 28.6244 13.5049 28.3765 14.4899 27.8529C15.668 27.2269 16.2563 25.7232 16.003 24.4388C17.982 24.8707 19.5637 26.5671 19.1262 28.7046C18.9151 29.7383 20.512 30.1069 20.7238 29.0708C21.4738 25.4058 18.4079 22.8729 15.0029 22.694ZM12.041 26.6265C11.3177 26.3444 11.832 25.5279 12.2002 25.1335C12.6982 24.5997 13.4707 24.4001 14.2265 24.343C14.8791 25.5972 13.5301 27.2071 12.041 26.6265Z" fill="#29AEFD"/>
<path d="M37.7936 30.8418C37.7936 31.2795 37.4389 31.6348 37.0007 31.6348C36.5632 31.6348 36.208 31.2795 36.208 30.8418C36.208 30.404 36.5632 30.0488 37.0007 30.0488C37.4389 30.0488 37.7936 30.404 37.7936 30.8418Z" fill="white"/>
<path d="M31.6348 24.7401C31.6348 25.178 31.2801 25.533 30.8418 25.533C30.404 25.533 30.0488 25.178 30.0488 24.7401C30.0488 24.3026 30.404 23.9473 30.8418 23.9473C31.2801 23.9473 31.6348 24.3026 31.6348 24.7401Z" fill="white"/>
<path d="M17.1514 29.8418C17.1514 30.2795 16.7962 30.6344 16.3581 30.6344C15.9203 30.6344 15.5654 30.2795 15.5654 29.8418C15.5654 29.404 15.9201 29.0488 16.3581 29.0488C16.7964 29.0488 17.1514 29.404 17.1514 29.8418Z" fill="white"/>
<path d="M38.0434 46.2676C37.8178 46.4221 37.5892 46.5715 37.3605 46.7148C35.6723 47.7724 33.8355 48.5809 31.9966 49.3359C29.6622 50.294 27.3094 51.0829 24.8286 51.5698C23.9044 51.7509 22.9738 51.8902 22.0391 51.996L22.8766 52.906C23.5598 52.8159 24.2419 52.7088 24.9206 52.5826C27.545 52.0954 30.0263 51.238 32.4877 50.2243C34.3633 49.4518 36.2227 48.6193 37.9473 47.5443L38.0434 46.2676Z" fill="#7BEFE5"/>
<path d="M26.4586 55.9684C26.2418 56.0109 26.0236 56.0505 25.8057 56.0887L26.616 56.9689C29.216 56.4795 31.6771 55.6281 34.1179 54.6227C35.2694 54.1484 36.4155 53.6512 37.5275 53.0894L37.6174 51.9062C36.3271 52.5961 34.9777 53.1798 33.6274 53.7344C31.2927 54.6928 28.9399 55.4817 26.4586 55.9684Z" fill="#7BEFE5"/>
<path d="M33.3947 34.4303C35.0906 33.8772 36.5383 34.8228 37.135 36.4326C37.4399 37.2565 36.187 37.794 35.8808 36.9659C35.5469 36.0634 34.9641 35.4797 33.966 35.6809C32.8695 35.9023 32.5752 36.8482 33.0233 37.7854C33.4042 38.5807 32.1478 39.1104 31.7694 38.3187C30.9963 36.7022 31.6853 34.9872 33.3947 34.4303Z" fill="#074785"/>
<path d="M19.8599 38.6635C21.5703 38.1596 22.9911 39.1457 23.5411 40.7727C23.8233 41.6051 22.5556 42.1052 22.2731 41.2694C21.9644 40.3583 21.3988 39.7576 20.3953 39.9305C19.2933 40.1202 18.9724 41.0576 19.3936 42.0065C19.7516 42.8133 18.4811 43.306 18.1253 42.5041C17.3981 40.8662 18.1352 39.1716 19.8599 38.6635Z" fill="#074785"/>
<path d="M25.6554 41.1132C25.5203 40.7661 25.5645 40.3816 25.9207 40.1818C26.2132 40.018 26.7095 40.0985 26.8453 40.4461C27.0401 40.9471 27.3854 41.8152 28.0228 41.8418C28.9254 41.8793 29.0393 40.7613 28.9229 40.1166C28.7665 39.2539 30.0881 38.921 30.2457 39.7916C30.5054 41.2311 30.036 42.7575 28.4907 43.1482C27.0981 43.5003 26.1092 42.2755 25.6554 41.1132Z" fill="#074785"/>
<path fill-rule="evenodd" clip-rule="evenodd" d="M3.39895 25.7871C2.48941 25.7871 2.48941 27.1974 3.39895 27.1974C4.30785 27.1976 4.30785 25.7871 3.39895 25.7871Z" fill="#FD6085"/>
<path fill-rule="evenodd" clip-rule="evenodd" d="M18.82 7.92188C17.9103 7.92188 17.9103 9.33219 18.82 9.33219C19.7296 9.33219 19.7296 7.92188 18.82 7.92188Z" fill="#FD6085"/>
<path fill-rule="evenodd" clip-rule="evenodd" d="M36.1205 13.752C35.2111 13.752 35.2111 15.1624 36.1205 15.1624C37.0302 15.1626 37.0302 13.752 36.1205 13.752Z" fill="#FD6085"/>
<path d="M34.1963 44.5837C34.1963 44.9176 33.9257 45.1884 33.5912 45.1884C33.2573 45.1884 32.9863 44.9176 32.9863 44.5837C32.9863 44.2491 33.2573 43.9785 33.5912 43.9785C33.9257 43.9785 34.1963 44.249 34.1963 44.5837Z" fill="white"/>
<path d="M26.9463 48.3355C26.9463 48.6695 26.6754 48.9405 26.3412 48.9405C26.007 48.9405 25.7363 48.6695 25.7363 48.3355C25.7363 48.0012 26.007 47.7305 26.3412 47.7305C26.6754 47.7305 26.9463 48.0012 26.9463 48.3355Z" fill="white"/>
<path d="M34.1963 59.2027C34.1963 59.5367 33.9257 59.8075 33.5912 59.8075C33.2573 59.8075 32.9863 59.5367 32.9863 59.2027C32.9863 58.8684 33.2573 58.5977 33.5912 58.5977C33.9257 58.5977 34.1963 58.8684 34.1963 59.2027Z" fill="white"/>
<path fill-rule="evenodd" clip-rule="evenodd" d="M21.0601 49.4873C21.6076 50.2591 22.8042 49.4094 22.2564 48.6379C21.7087 47.8668 20.5124 48.716 21.0601 49.4873Z" fill="white"/>
<path fill-rule="evenodd" clip-rule="evenodd" d="M13.8816 40.8935C15.6752 43.0744 17.5152 45.2163 19.3091 47.398C19.8963 48.1108 21.0034 47.201 20.417 46.4874C18.6223 44.3066 16.7824 42.1646 14.9884 39.9844C14.4013 39.2702 13.2943 40.1797 13.8816 40.8935Z" fill="white"/>
<path fill-rule="evenodd" clip-rule="evenodd" d="M12.0411 38.7283C12.5763 39.4812 13.7449 38.6518 13.2094 37.8984C12.6746 37.1451 11.5065 37.975 12.0411 38.7283Z" fill="white"/>
<path d="M73.1114 9.11808C72.9381 8.95058 72.5907 6.6023 72.2756 6.62121C71.9601 6.64011 71.6846 8.96933 71.5371 9.12261C71.2415 9.43011 69.076 9.64839 69.0939 9.94683C69.1115 10.2443 71.2376 10.3853 71.5385 10.6762C71.7059 10.8385 72.0578 13.1935 72.374 13.1746C72.6892 13.1564 72.9593 10.8334 73.1129 10.6751C73.3984 10.3778 75.5803 10.1482 75.5629 9.84886C75.5451 9.5498 73.4003 9.39933 73.1114 9.11808Z" fill="#074785"/>
<path d="M51.5334 6.54821C51.5532 6.20852 53.4484 6.00009 54.4931 5.73165C54.092 4.70602 53.1426 3.02555 53.4241 2.83321C53.6618 2.67055 54.6515 3.63368 55.4663 4.33321C55.7227 3.25227 56.0424 1.80852 56.3421 1.82634C56.6809 1.84696 56.9884 3.68805 57.2129 4.75446C58.2326 4.3068 59.9098 3.46899 60.1004 3.74821C60.2688 3.9954 59.3052 5.08774 58.5901 5.91196C59.649 6.16805 61.014 6.40446 60.997 6.69165C60.9768 7.03243 59.0657 7.23274 58.0256 7.50805C58.421 8.53399 59.3816 10.2149 59.1001 10.4071C58.8631 10.5691 57.887 9.61259 57.0741 8.9154C56.8181 9.9954 56.497 11.4312 56.1977 11.414C55.8596 11.3941 55.5568 9.55774 55.3304 8.49087C54.3121 8.93852 52.6215 9.78102 52.4287 9.5004C52.2596 9.25321 53.2295 8.15993 53.9446 7.33509C52.8838 7.07915 51.516 6.83587 51.5334 6.54821Z" fill="#F9D555"/>
<path fill-rule="evenodd" clip-rule="evenodd" d="M76.3925 29.7812C74.3392 26.2723 71.4648 23.4838 68.1357 21.5424C66.0192 20.2018 62.1406 18.8569 59.6481 18.5994C55.832 18.064 51.8484 18.4748 48.0642 19.9595C45.6173 20.9893 43.9373 23.3245 44.1842 24.773L45.8715 46.9259L46.0518 47.7402L45.9712 48.2327L46.3057 52.6246L46.6648 53.2777L46.3968 53.8215L47.1292 63.4357C47.1804 66.0573 48.5517 66.5331 50.2145 64.5052L56.5264 57.641L56.6617 57.1543L57.3229 56.7749L60.2059 53.6398L60.4395 53.1585L61.0256 52.7482L76.4603 35.9629C77.5507 34.9782 77.6767 32.1048 76.3925 29.7812Z" fill="#FD6085"/>
<path fill-rule="evenodd" clip-rule="evenodd" d="M74.0689 33.4549C72.4242 35.6482 66.4498 33.9737 59.8467 31.7384C53.2769 29.4062 47.5483 27.0232 47.6148 24.2827C47.6325 21.5938 54.8611 19.5876 63.0683 22.4456C71.2844 25.282 75.7194 31.332 74.0689 33.4549Z" fill="#FFA4AC"/>
<path d="M75.9403 21.9308C75.5199 20.2148 74.3516 18.8611 72.8231 18.0147C72.6186 17.9019 72.4103 17.7995 72.1978 17.7083C72.2591 17.6562 72.3238 17.6076 72.3969 17.5648C73.6649 16.8189 75.4684 17.4103 76.6905 17.9576C77.3438 18.2505 77.9875 18.6636 78.4964 19.1698C79.237 19.9067 80.522 18.8876 79.7736 18.1428C77.7788 16.1575 73.8899 14.5839 71.3022 16.3356C70.9453 16.577 70.6789 16.884 70.4855 17.2312C69.5923 17.1137 68.6795 17.197 67.8023 17.5281C66.1325 18.1586 65.0145 19.8551 64.8713 21.5928C64.8377 22.0033 64.873 22.4347 64.967 22.8636C64.915 22.8975 64.8638 22.9322 64.8136 22.9673C62.9616 24.2736 61.9763 26.8684 62.2083 29.0744C62.3189 30.129 63.9395 29.879 63.8295 28.8322C63.6594 27.2167 64.3891 25.5206 65.6052 24.4494C66.2195 25.4573 67.1734 26.2411 68.3194 26.374C70.0108 26.5703 70.6014 24.5425 69.9092 23.3092C69.1824 22.015 67.7974 21.8306 66.5124 22.1734C66.3125 20.4214 67.7648 18.9889 69.4463 18.8078C69.6486 18.7859 69.8538 18.7833 70.0589 18.797C70.015 19.4466 70.095 20.1144 70.2308 20.7037C70.6722 22.6161 71.7966 24.4489 73.8053 24.9158C75.7219 25.3611 76.3011 23.3989 75.9403 21.9308ZM68.5694 24.643C68.5475 24.8197 68.3247 24.7525 68.0395 24.5937C67.6555 24.3803 67.3375 24.0719 67.0895 23.7122C67.8669 23.5708 68.6839 23.7201 68.5694 24.643ZM72.5131 22.0669C72.0947 21.448 71.6295 20.2514 71.6278 19.2133C72.5238 19.6275 73.3188 20.3042 73.83 21.0642C74.1813 21.5861 74.5872 22.5425 74.4309 23.1861C74.2455 23.949 72.6875 22.3244 72.5131 22.0669Z" fill="#A089E4"/>
<path d="M63.5559 18.8112C62.637 17.7271 61.9132 16.3016 62.8024 14.9791C62.8282 14.9412 62.8607 14.8987 62.8965 14.8544C63.7935 16.1288 65.2571 17.2743 66.5584 15.878C67.3959 14.9785 66.7843 13.669 66.0303 12.9655C65.2928 12.2772 64.4217 12.2049 63.5812 12.4746C63.4623 11.318 64.5656 10.1254 65.5839 9.78194C66.5873 9.44287 65.9256 7.94194 64.9331 8.27694C62.8923 8.96616 61.5796 11.2507 62.1179 13.2941C60.0506 15.0274 60.6529 17.9205 62.2788 19.8387C62.9609 20.6437 64.2395 19.6183 63.5559 18.8112ZM64.6887 13.9829C64.8754 14.0921 65.5334 14.7516 65.2535 14.8882C65.2229 14.9032 65.1634 14.8735 65.0654 14.8113C64.8437 14.6705 64.6739 14.4762 64.5053 14.2776C64.4471 14.209 64.392 14.1383 64.3387 14.0662C64.289 13.9988 64.3399 13.9044 64.4234 13.908C64.5176 13.9119 64.6071 13.9351 64.6887 13.9829Z" fill="#7BEFE5"/>
<path d="M58.456 18.9763C58.2968 17.8052 57.6277 16.6972 56.8194 15.8583C55.3307 14.3138 53.3383 13.6236 51.2823 13.2171C50.2438 13.0117 50.0762 14.6428 51.1054 14.8463C52.9771 15.2164 55.1941 16.0481 56.2588 17.7167C55.5005 17.4825 54.6983 17.4295 53.934 17.661C52.5669 18.0758 51.6262 19.2206 52.0898 20.6574C52.4573 21.7967 53.7602 22.5091 54.8582 22.7086C56.1704 22.9472 57.5633 22.1306 58.1604 20.9656C59.4471 22.531 59.6377 24.842 57.9701 26.2492C57.1633 26.9297 58.1887 28.2088 58.9973 27.5263C61.8565 25.1136 61.0187 21.2263 58.456 18.9763ZM53.6954 20.2285C53.3021 19.5591 54.2118 19.2367 54.7451 19.1553C55.4666 19.045 56.1966 19.3669 56.8255 19.79C56.561 21.1786 54.5046 21.6069 53.6954 20.2285Z" fill="#29AEFD"/>
<path d="M53.1188 26.2266C53.1188 26.6642 52.7641 27.0195 52.3259 27.0195C51.888 27.0195 51.5332 26.6642 51.5332 26.2266C51.5332 25.7887 51.8879 25.4336 52.3259 25.4336C52.764 25.4336 53.1188 25.7886 53.1188 26.2266Z" fill="white"/>
<path d="M69.8867 30.8418C69.8867 31.2795 69.532 31.6348 69.0937 31.6348C68.6559 31.6348 68.3008 31.2795 68.3008 30.8418C68.3008 30.404 68.6559 30.0488 69.0937 30.0488C69.532 30.0488 69.8867 30.404 69.8867 30.8418Z" fill="white"/>
<path d="M60.5413 35.4748C60.5413 35.9124 60.1866 36.2676 59.748 36.2676C59.3102 36.2676 58.9551 35.9124 58.9551 35.4748C58.9551 35.0366 59.3102 34.6816 59.748 34.6816C60.1866 34.6815 60.5413 35.0366 60.5413 35.4748Z" fill="white"/>
<path d="M59.44 52.4788C56.9592 51.9921 54.6064 51.2032 52.272 50.2449C50.4328 49.4899 48.5961 48.6813 46.9081 47.6238C46.5586 47.4049 46.2109 47.1735 45.8711 46.9277L45.9705 48.2307C46.072 48.2966 46.1739 48.3615 46.2761 48.4255C48.0128 49.5141 49.8888 50.3538 51.7811 51.133C54.2422 52.1468 56.7236 53.0044 59.3478 53.4916C59.6333 53.5446 59.9191 53.5933 60.2052 53.6398L61.0247 52.7488C60.4947 52.6713 59.9663 52.5819 59.44 52.4788Z" fill="#FFA4AC"/>
<path d="M56.5268 57.6413L57.3219 56.7769C55.0193 56.2857 52.8222 55.5385 50.6413 54.643C49.1699 54.0391 47.6999 53.4002 46.3057 52.627L46.3969 53.8218C47.6164 54.4571 48.8799 55.008 50.151 55.5318C52.2366 56.3905 54.3372 57.1368 56.5268 57.6413Z" fill="#FFA4AC"/>
<path d="M64.4823 37.7762C66.2182 38.1911 66.9582 39.7534 66.6249 41.4379C66.4548 42.3 65.1062 42.1036 65.2773 41.2376C65.464 40.2934 65.2723 39.4914 64.3162 39.1414C63.2654 38.7575 62.5204 39.4098 62.4129 40.4429C62.3217 41.32 60.974 41.1151 61.0649 40.2425C61.251 38.4603 62.734 37.3576 64.4823 37.7762Z" fill="#074785"/>
<path d="M50.7313 34.3117C52.4527 34.7759 53.1488 36.359 52.7675 38.0339C52.5733 38.8911 51.2311 38.6553 51.4267 37.7947C51.64 36.8567 51.4716 36.049 50.5255 35.6722C49.4871 35.2581 48.7235 35.8893 48.5869 36.9187C48.4705 37.7933 47.1297 37.5503 47.2453 36.6801C47.4811 34.9034 48.9949 33.844 50.7313 34.3117Z" fill="#074785"/>
<path d="M54.3914 39.4296C54.458 39.0634 54.6963 38.7584 55.1041 38.774C55.4394 38.7871 55.8207 39.1151 55.7546 39.4823C55.6591 40.0117 55.4999 40.9318 56.0294 41.2878C56.7793 41.7913 57.4605 40.8978 57.6982 40.2873C58.0158 39.4699 59.3163 39.8767 58.9955 40.7012C58.465 42.064 57.2674 43.1203 55.7454 42.6459C54.3741 42.2189 54.1711 40.6576 54.3914 39.4296Z" fill="#074785"/>
<path fill-rule="evenodd" clip-rule="evenodd" d="M46.4635 15.2559C45.5538 15.2559 45.5538 16.666 46.4635 16.666C47.3729 16.666 47.3729 15.2559 46.4635 15.2559Z" fill="#FD6085"/>
<path fill-rule="evenodd" clip-rule="evenodd" d="M65.4577 3.5957C64.548 3.5957 64.548 5.00602 65.4577 5.00602C66.3674 5.00617 66.3674 3.5957 65.4577 3.5957Z" fill="#FD6085"/>
<path fill-rule="evenodd" clip-rule="evenodd" d="M78.9977 24.2832C78.088 24.2832 78.088 25.694 78.9977 25.694C79.9071 25.6938 79.9071 24.2832 78.9977 24.2832Z" fill="#FD6085"/>
<path d="M50.1514 60.3239C50.1514 60.6578 49.8805 60.9286 49.5466 60.9286C49.212 60.9286 48.9414 60.6578 48.9414 60.3239C48.9414 59.9895 49.212 59.7188 49.5466 59.7188C49.8805 59.7187 50.1514 59.9895 50.1514 60.3239Z" fill="white"/>
<path d="M50.6589 44.2749C50.6589 44.609 50.3883 44.8801 50.0541 44.8801C49.7198 44.8801 49.4492 44.609 49.4492 44.2749C49.4492 43.9409 49.7198 43.6699 50.0541 43.6699C50.3884 43.6699 50.6589 43.9409 50.6589 44.2749Z" fill="white"/>
<path d="M57.9265 47.7301C57.9265 48.064 57.6559 48.3348 57.3216 48.3348C56.987 48.3348 56.7168 48.064 56.7168 47.7301C56.7168 47.3955 56.987 47.125 57.3216 47.125C57.6559 47.125 57.9265 47.3956 57.9265 47.7301Z" fill="white"/>
<path fill-rule="evenodd" clip-rule="evenodd" d="M61.8904 48.3487C61.1999 48.9962 62.2036 50.0666 62.8941 49.4194C63.584 48.7726 62.5805 47.702 61.8904 48.3487Z" fill="white"/>
<path fill-rule="evenodd" clip-rule="evenodd" d="M69.4351 40.0738C67.5169 42.1462 65.6433 44.2592 63.7249 46.3318C63.0977 47.0096 64.149 47.984 64.7768 47.306C66.6946 45.2331 68.5683 43.1198 70.4854 41.0476C71.1136 40.3692 70.0626 39.3949 69.4351 40.0738Z" fill="white"/>
<path fill-rule="evenodd" clip-rule="evenodd" d="M71.3308 37.9574C70.6574 38.5896 71.6371 39.6352 72.3113 39.0029C72.9849 38.371 72.0049 37.3257 71.3308 37.9574Z" fill="white"/>
</svg>