
<svg width="17" height="14" viewBox="0 0 17 14" fill="none" xmlns="http://www.w3.org/2000/svg">
<path d="M9.6875 3H8.15625C7.25 3 6.5 3.78125 6.5 4.6875C6.5 4.96875 6.71875 5.1875 7 5.1875C7.25 5.1875 7.5 4.96875 7.5 4.6875C7.5 4.3125 7.78125 4 8.15625 4H9.6875C10.125 4 10.5 4.375 10.5 4.8125C10.5 5.125 10.3125 5.40625 10.0312 5.5625L8.75 6.21875C8.59375 6.3125 8.5 6.46875 8.5 6.65625V7.5C8.5 7.78125 8.71875 8 9 8C9.25 8 9.5 7.78125 9.5 7.5V6.96875L10.5 6.4375C11.0938 6.125 11.5 5.5 11.5 4.8125C11.5 3.8125 10.6875 3 9.6875 3ZM9 8.75C8.625 8.75 8.375 9.03125 8.375 9.375C8.375 9.71875 8.625 10 9 10C9.34375 10 9.625 9.75 9.625 9.375C9.625 9.03125 9.34375 8.75 9 8.75ZM9 0C4.5625 0 1 2.90625 1 6.5C1 7.96875 1.625 9.34375 2.65625 10.4375C2.1875 11.6562 1.21875 12.7188 1.21875 12.7188C1 12.9375 0.96875 13.25 1.0625 13.5312C1.15625 13.8438 1.4375 14 1.75 14C3.65625 14 5.15625 13.2188 6.09375 12.5625C6.96875 12.8438 7.96875 13 9 13C13.4062 13 16.9688 10.0938 16.9688 6.5C16.9688 2.9375 13.4062 0 9 0ZM9 12C8.09375 12 7.21875 11.875 6.375 11.625C6.09375 11.5312 5.75 11.5625 5.5 11.75C4.8125 12.25 3.6875 12.8438 2.28125 13C2.65625 12.5312 3.21875 11.7188 3.5625 10.8125C3.71875 10.4688 3.625 10.0938 3.375 9.78125C2.46875 8.8125 2 7.6875 2 6.5C2 3.46875 5.125 1 8.96875 1C12.8125 1 15.9375 3.46875 15.9375 6.5C15.9375 9.53125 12.8438 12 9 12Z" fill="url(#paint0_linear_1378_43)"/>
<defs>
<linearGradient id="paint0_linear_1378_43" x1="0" y1="-5" x2="2.26642e-07" y2="19" gradientUnits="userSpaceOnUse">
<stop stop-color="#5EBBFF"/>
<stop offset="1" stop-color="#A174FF"/>
</linearGradient>
</defs>
</svg>
