<svg xmlns="http://www.w3.org/2000/svg" width="16" height="16" viewBox="0 0 16 16" fill="none">
<path d="M8 3.5C7.71875 3.5 7.5 3.28125 7.5 3V0.5C7.5 0.25 7.71875 0 8 0C8.25 0 8.5 0.25 8.5 0.5V3C8.5 3.28125 8.25 3.5 8 3.5ZM8.5 15.5V13C8.5 12.75 8.25 12.5 8 12.5C7.71875 12.5 7.5 12.75 7.5 13V15.5C7.5 15.7812 7.71875 16 8 16C8.25 16 8.5 15.7812 8.5 15.5ZM16 8C16 7.75 15.75 7.5 15.5 7.5H13C12.7188 7.5 12.5 7.75 12.5 8C12.5 8.28125 12.7188 8.5 13 8.5H15.5C15.75 8.5 16 8.28125 16 8ZM3.5 8C3.5 7.75 3.25 7.5 3 7.5H0.5C0.21875 7.5 0 7.75 0 8C0 8.28125 0.21875 8.5 0.5 8.5H3C3.25 8.5 3.5 8.28125 3.5 8ZM11.875 4.84375L13.6562 3.0625C13.8438 2.875 13.8438 2.5625 13.6562 2.34375C13.4375 2.15625 13.125 2.15625 12.9375 2.34375L11.1562 4.125C10.9688 4.3125 10.9688 4.625 11.1562 4.84375C11.2812 4.9375 11.4062 4.96875 11.5312 4.96875C11.6562 4.96875 11.7812 4.9375 11.875 4.84375ZM3.03125 13.6562L4.8125 11.9062C5 11.7188 5 11.4062 4.8125 11.1875C4.59375 11 4.28125 11 4.09375 11.1875L2.3125 12.9688C2.125 13.1562 2.125 13.4688 2.3125 13.6562C2.4375 13.7812 2.5625 13.8125 2.6875 13.8125C2.8125 13.8125 2.9375 13.7812 3.03125 13.6562ZM13.6562 13.6562C13.8438 13.4688 13.8438 13.1562 13.6562 12.9688L11.875 11.1875C11.6875 11 11.375 11 11.1562 11.1875C10.9688 11.4062 10.9688 11.7188 11.1562 11.9062L12.9375 13.6875C13.0312 13.7812 13.1562 13.8125 13.2812 13.8125C13.4062 13.8125 13.5312 13.7812 13.6562 13.6562ZM4.8125 4.84375C5 4.625 5 4.3125 4.8125 4.125L3.03125 2.34375C2.84375 2.15625 2.53125 2.15625 2.3125 2.34375C2.125 2.5625 2.125 2.875 2.3125 3.0625L4.09375 4.84375C4.1875 4.9375 4.3125 4.96875 4.4375 4.96875C4.5625 4.96875 4.71875 4.9375 4.8125 4.84375ZM11.5 8C11.5 6.09375 9.90625 4.5 8 4.5C6.0625 4.5 4.5 6.09375 4.5 8C4.5 9.9375 6.0625 11.5 8 11.5C9.90625 11.5 11.5 9.9375 11.5 8ZM10.5 8C10.5 9.40625 9.375 10.5 8 10.5C6.59375 10.5 5.5 9.40625 5.5 8C5.5 6.625 6.59375 5.5 8 5.5C9.375 5.5 10.5 6.625 10.5 8Z" fill="url(#paint0_linear_1378_7163)"/>
<defs>
<linearGradient id="paint0_linear_1378_7163" x1="-1" y1="-4" x2="-1" y2="20" gradientUnits="userSpaceOnUse">
<stop stop-color="#5EBBFF"/>
<stop offset="1" stop-color="#A174FF"/>
</linearGradient>
</defs>
</svg>