<svg xmlns="http://www.w3.org/2000/svg" width="24" height="24" viewBox="0 0 24 24" fill="none">
<path d="M11.0156 15.5625C10.7344 15.8438 10.2188 15.8438 9.9375 15.5625L6.9375 12.5625C6.65625 12.2812 6.65625 11.7656 6.9375 11.4844C7.21875 11.2031 7.73438 11.2031 8.01562 11.4844L10.5 13.9688L15.9375 8.48438C16.2188 8.20312 16.7344 8.20312 17.0156 8.48438C17.2969 8.76562 17.2969 9.28125 17.0156 9.5625L11.0156 15.5625ZM24 12C24 18.6562 18.6094 24 12 24C5.34375 24 0 18.6562 0 12C0 5.39062 5.34375 0 12 0C18.6094 0 24 5.39062 24 12ZM12 1.5C6.1875 1.5 1.5 6.23438 1.5 12C1.5 17.8125 6.1875 22.5 12 22.5C17.7656 22.5 22.5 17.8125 22.5 12C22.5 6.23438 17.7656 1.5 12 1.5Z" fill="#0093FC"/>
</svg>