
<svg width="24" height="24" viewBox="0 0 24 24" fill="none" xmlns="http://www.w3.org/2000/svg">
<path d="M16.5 11.25H7.5C7.07812 11.25 6.75 11.625 6.75 12C6.75 12.4219 7.07812 12.75 7.5 12.75H16.5C16.875 12.75 17.25 12.4219 17.25 12C17.25 11.625 16.875 11.25 16.5 11.25ZM12 0C5.34375 0 0 5.39062 0 12C0 18.6562 5.34375 24 12 24C18.6094 24 24 18.6562 24 12C24 5.39062 18.6094 0 12 0ZM12 22.5C6.1875 22.5 1.5 17.8125 1.5 12C1.5 6.23438 6.1875 1.5 12 1.5C17.7656 1.5 22.5 6.23438 22.5 12C22.5 17.8125 17.7656 22.5 12 22.5Z" fill="#0093FC"/>
</svg>
