
<svg width="188" height="65" viewBox="0 0 188 65" fill="none" xmlns="http://www.w3.org/2000/svg">
<mask id="mask0_1171_8261" style="mask-type:alpha" maskUnits="userSpaceOnUse" x="0" y="0" width="188" height="65">
<rect width="187.117" height="65" rx="8" fill="#C4C4C4"/>
</mask>
<g mask="url(#mask0_1171_8261)">
<path fill-rule="evenodd" clip-rule="evenodd" d="M65.7989 95.129C59.0657 109.208 45.7026 119.863 29.0465 122.513C2.16416 126.79 -23.1162 108.594 -27.4186 81.8725C-31.7211 55.1506 -13.4165 30.0213 13.4658 25.7445C28.9233 23.2853 43.8511 28.2561 54.5656 38.0055C57.9222 35.801 61.7942 34.2549 66.0252 33.5818C80.1452 31.3354 93.5183 39.5664 98.1256 52.5034C102.3 50.6872 106.773 49.3627 111.482 48.6135C141.382 43.8567 169.5 64.0943 174.285 93.8156C179.071 123.537 158.711 151.487 128.812 156.244C98.9118 161.001 70.7939 140.763 66.0085 111.042C65.1381 105.636 65.0996 100.289 65.7989 95.129Z" fill="url(#paint0_linear_1171_8261)" fill-opacity="0.5"/>
<path d="M63.5735 61.0913C62.9569 59.8332 62.3095 58.5443 61.508 57.4089C59.9974 55.2301 58.0552 53.3275 55.6815 52.1614C54.3867 51.5169 52.9686 51.1487 51.5197 51.0566C51.3039 51.0566 51.273 51.3021 51.3347 51.4249C52.3212 53.2661 53.4002 55.1687 55.0341 56.519C55.8356 57.1634 56.7296 57.6237 57.7469 57.8692C59.0417 58.1761 60.3982 58.2068 61.6621 58.6671C61.7238 58.6977 61.7546 58.6671 61.7854 58.6364C62.2787 59.4035 62.7411 60.2014 63.1419 60.9993C63.8509 62.4109 64.4058 63.8839 65.1765 65.2341C65.2073 65.2955 65.3307 65.2341 65.2998 65.1727C64.8991 63.7611 64.2208 62.4109 63.5735 61.0913ZM58.3327 57.593C57.2229 57.3475 56.2364 56.8565 55.3423 56.1507C53.8626 54.9232 52.8761 53.2354 51.9513 51.5476C56.1747 51.9159 59.4117 54.9846 61.6929 58.4216C60.614 57.9919 59.4733 57.8692 58.3327 57.593Z" fill="#202B59"/>
<path d="M62.0323 49.4611C61.3849 48.2643 60.4909 47.1903 59.6277 46.1469C58.672 44.9808 57.7164 43.8761 56.8223 42.6793C56.7299 42.5565 56.5141 42.5872 56.4832 42.7406C56.0516 45.5332 55.7434 48.6633 57.2231 51.2103C58.5179 53.4198 60.8916 54.7393 62.988 56.1509C63.1729 56.3964 63.3271 56.6419 63.512 56.8874C63.6045 57.0102 63.8203 56.9488 63.8203 56.7954C63.6662 54.279 63.2346 51.7013 62.0323 49.4611ZM57.8088 51.1489C56.2983 48.786 56.5757 45.8707 56.8223 43.2009C57.6547 44.1829 58.4562 45.1956 59.2578 46.1776C60.0901 47.1903 60.9533 48.203 61.6315 49.3691C62.803 51.3944 63.2038 53.7266 63.4195 56.0282C63.2962 55.9361 63.2038 55.8441 63.0804 55.752C61.1999 54.3097 59.1036 53.1743 57.8088 51.1489Z" fill="#202B59"/>
<path d="M65.8553 62.287C65.7319 61.8267 65.6395 61.3664 65.5778 60.9061C65.4545 60.0469 65.362 59.1263 65.4545 58.2363C65.1154 59.1263 65.0846 60.0162 65.2079 60.9368C65.2695 61.3664 65.362 61.8267 65.4853 62.2564C65.5778 62.686 65.6703 63.177 65.9169 63.5759C65.9786 63.6986 66.1327 63.6066 66.1327 63.5145C66.1019 63.0849 65.9477 62.686 65.8553 62.287Z" fill="#202B59"/>
<path d="M65.5465 62.9328C65.2999 62.1656 65.0533 61.4291 64.8375 60.6619C64.375 59.0969 63.9743 57.5012 63.4502 55.9668C63.5735 57.5932 63.9743 59.1583 64.4367 60.7233C64.6525 61.5212 64.8991 62.2884 65.1766 63.0555C65.4232 63.792 65.639 64.6513 66.0089 65.3264C66.1014 65.4491 66.348 65.3878 66.3172 65.2343C66.1631 64.4671 65.7931 63.7 65.5465 62.9328Z" fill="#202B59"/>
<path d="M112.529 77.2634C111.419 77.9999 110.094 78.3681 108.799 78.6136C107.042 78.9205 105.254 79.0126 103.466 79.0433C99.7665 79.0739 96.0363 78.6136 92.3986 78.0613C90.9496 78.7057 88.6067 78.1226 87.0345 78.0613C85.2773 77.9999 83.705 78.2147 81.9478 77.9999C78.4643 77.5396 75.6281 77.4475 72.1753 76.711C69.2158 76.0666 66.1947 74.9925 63.5435 73.3968C60.4298 71.5249 60.6148 66.4922 61.1389 65.0806C62.0329 62.6256 63.636 60.8151 65.9789 59.5262C68.8459 57.9612 72.8844 58.8818 75.9364 59.4648C78.7417 59.9865 81.5163 60.6616 84.26 61.4288C86.5721 60.0172 89.2849 59.3421 91.967 59.0352C93.8167 58.8511 95.6663 58.8204 97.516 58.8204C99.3965 58.8204 101.308 58.7897 103.219 58.7897C105.038 58.7897 106.888 58.8818 108.676 59.158C109.138 59.2193 109.94 59.3421 110.556 59.6183C110.063 58.759 114.225 65.8171 114.749 68.8244C115.304 71.7397 115.273 75.4222 112.529 77.2634Z" fill="#FFCE76"/>
<path d="M97.5771 24.7567V46.2991C97.5771 47.588 96.5289 48.6313 95.2342 48.6313H60.2443C58.9495 48.6313 57.9014 47.588 57.9014 46.2991V24.7567C57.9014 23.4679 58.9495 22.4245 60.2443 22.4245H95.2342C96.5289 22.3938 97.5771 23.4372 97.5771 24.7567Z" fill="#202B59"/>
<path d="M79.6661 27.6719H74.3945V29.1449H79.6661V27.6719Z" fill="#36D7BE"/>
<path d="M86.9721 27.6719H80.4365V29.1449H86.9721V27.6719Z" fill="#36D7BE"/>
<path d="M81.0838 32.0293H72.082V33.5023H81.0838V32.0293Z" fill="#36D7BE"/>
<path d="M75.659 35.3145H66.6572V36.7874H75.659V35.3145Z" fill="#202B59"/>
<path d="M87.0024 35.3145H77.0449V36.7874H87.0024V35.3145Z" fill="#202B59"/>
<path d="M69.369 39.0586H64.0049V40.5316H69.369V39.0586Z" fill="#36D7BE"/>
<path d="M67.6119 35.3145H64.1592V36.7874H67.6119V35.3145Z" fill="#FFCE76"/>
<path d="M83.4569 45.4414H74.4551V46.9144H83.4569V45.4414Z" fill="#36D7BE"/>
<path d="M73.0692 45.4414H64.0674V46.9144H73.0692V45.4414Z" fill="#FFCE76"/>
<path d="M73.0067 27.6719H64.0049V29.1449H73.0067V27.6719Z" fill="#FFCE76"/>
<path d="M73.6538 32.0293H64.1279V33.5023H73.6538V32.0293Z" fill="#36D7BE"/>
<path d="M97.5767 25.3999C97.5767 25.492 57.8701 25.492 57.8701 25.492C57.8701 23.7428 58.3325 22.3926 60.8913 22.3926H94.5555C96.2203 22.3926 97.5767 23.7428 97.5767 25.3999Z" fill="white"/>
<path d="M65.4529 23.2559C65.8845 23.2559 66.2544 23.6241 66.2544 24.0537C66.2544 24.4833 65.8845 24.8516 65.4529 24.8516C65.0213 24.8516 64.6514 24.4833 64.6514 24.0537C64.6514 23.6241 64.9905 23.2559 65.4529 23.2559Z" fill="#FF88C4"/>
<path d="M62.7713 23.2559C63.2029 23.2559 63.5728 23.6241 63.5728 24.0537C63.5728 24.4833 63.2029 24.8516 62.7713 24.8516C62.3397 24.8516 61.9697 24.4833 61.9697 24.0537C61.9697 23.6241 62.3397 23.2559 62.7713 23.2559Z" fill="#36BFE3"/>
<path d="M60.1814 23.2559C60.613 23.2559 60.9829 23.6241 60.9829 24.0537C60.9829 24.4833 60.613 24.8516 60.1814 24.8516C59.7498 24.8516 59.3799 24.4833 59.3799 24.0537C59.3799 23.6241 59.719 23.2559 60.1814 23.2559Z" fill="#FFCE76"/>
<path d="M95.234 48.7852H60.2441C58.8569 48.7852 57.7471 47.6805 57.7471 46.2995V24.7571C57.7471 23.3762 58.8569 22.2715 60.2441 22.2715H95.234C96.6213 22.2715 97.7311 23.3762 97.7311 24.7571V46.2995C97.7311 47.6805 96.6213 48.7852 95.234 48.7852ZM60.2441 22.5477C59.011 22.5477 58.0245 23.5297 58.0245 24.7571V46.2995C58.0245 47.4963 59.011 48.509 60.2441 48.509H95.234C96.4363 48.509 97.4537 47.527 97.4537 46.2995V24.7571C97.4537 23.5297 96.4672 22.5477 95.234 22.5477H60.2441Z" fill="#202B59"/>
<path d="M105.654 39.1476C102.509 39.1169 99.5497 40.4364 96.4052 40.5899C95.6962 40.6206 94.9563 40.5899 94.2472 40.5592C93.5998 40.5285 92.9525 40.4978 92.3359 40.3137C91.2261 39.9761 90.1471 39.0555 89.4072 38.1656C88.544 37.1222 88.3591 35.6799 88.0816 34.3911C87.8042 32.9794 87.4034 31.5678 87.2493 30.1562C86.9718 27.7319 87.3109 25.0622 88.8215 23.0675C90.9795 20.2443 95.7886 20.7046 96.1586 20.7353C97.0834 20.7966 98.1316 20.9808 98.9023 21.5024C99.7038 22.0241 100.012 22.9754 100.382 23.804C100.814 24.786 101.245 25.7986 101.584 26.842C102.263 28.9287 102.386 31.1689 103.002 33.2556C103.619 35.281 104.544 37.1836 105.746 38.9021C105.839 39.0248 105.777 39.1476 105.654 39.1476Z" fill="#202B59"/>
<path d="M116.505 57.8997C116.351 56.5188 116.073 55.1072 115.827 53.7262C115.334 51.0565 114.748 48.3867 113.977 45.7783C113.33 43.6302 112.405 41.482 110.771 39.8863C109.507 38.6588 107.997 37.9223 106.393 37.4007C106.301 37.37 106.208 37.3393 106.085 37.3086C105.561 37.6462 105.006 37.953 104.42 38.2292C103.095 38.8736 101.708 39.3339 100.32 39.7329C98.8714 40.1625 97.3917 40.4694 95.8811 40.3773C94.5863 40.2852 93.3532 39.9477 92.1817 39.3646C91.411 38.9657 90.702 38.4747 90.0546 37.8916C89.9929 37.9223 89.9313 37.953 89.8388 37.953C89.0989 38.2292 88.359 38.5054 87.6808 38.8736C85.6462 39.9477 84.3514 42.1265 83.4265 44.1518C82.8408 45.41 81.4535 49.43 80.8062 50.5041C73.1608 62.6562 83.3032 61.8277 84.2589 61.3673C85.4612 60.7843 87.3417 61.3673 88.6673 61.1218C91.3185 60.6615 91.9659 61.8277 94.5863 62.3186C97.3608 62.8403 100.135 63.5768 102.941 63.9758C105.623 64.3747 108.397 63.8837 111.048 63.4234C112.867 63.1165 114.933 62.9631 115.919 61.306C116.567 60.2933 116.628 59.0658 116.505 57.8997ZM92.2742 55.8437C91.1336 55.8437 90.0237 55.813 88.8831 55.813C88.7906 55.813 88.6981 55.7209 88.729 55.6288C88.8523 54.9844 89.0064 54.3707 89.2222 53.7569C89.3147 53.4501 89.438 53.1739 89.5613 52.8977C89.6846 52.6215 89.8079 52.2839 89.9929 52.0384C90.0546 51.9464 90.1779 52.0078 90.1779 52.0998C90.6403 52.2533 91.0411 52.4374 91.4418 52.5908C91.596 52.6522 91.8118 52.7136 91.9659 52.8056C92.0892 52.8977 92.0892 53.0204 92.1201 53.1432C92.2125 54.0024 92.305 54.8617 92.3975 55.7516C92.3975 55.7823 92.3358 55.8437 92.2742 55.8437Z" fill="#36BFE3"/>
<path d="M84.3834 59.7089C83.6435 60.5988 82.5337 61.0898 81.3623 61.0591C80.2524 61.0284 79.1426 60.5681 78.2794 59.8623C77.7554 59.5554 77.2621 59.1565 76.923 58.6655C76.1831 57.5608 76.0598 56.0571 75.844 54.7989C75.8132 54.6148 75.7824 54.4307 75.7515 54.2466C75.7515 54.1852 75.7207 54.0931 75.7207 54.0317C75.9057 54.1545 76.1215 54.2772 76.2756 54.3693C76.7997 54.6762 77.3854 54.891 77.9712 55.0751C79.1426 55.382 80.4374 55.4434 81.6089 55.1672C82.7495 54.9217 83.8285 54.3693 84.7225 53.6328C84.7534 53.7556 84.815 53.8476 84.8458 53.9704C85.0925 54.6762 85.3083 55.4434 85.3699 56.2105C85.4932 57.438 85.2158 58.7269 84.3834 59.7089Z" fill="#36BFE3"/>
<path d="M79.2958 40.5612H73.9009C71.4038 40.5612 69.3691 38.5358 69.3691 36.0502V34.8841C69.3691 32.3984 71.4038 30.373 73.9009 30.373H79.2958C81.7929 30.373 83.8275 32.3984 83.8275 34.8841V36.0502C83.8275 38.5665 81.7929 40.5612 79.2958 40.5612Z" fill="#FF88C4"/>
<path d="M74.7949 37.1872C73.8084 36.6042 72.9144 35.8677 72.1129 35.0085C72.5136 34.7016 72.9144 34.364 73.3152 34.0572C73.7776 33.6889 74.3325 33.29 74.6716 32.799C74.7641 32.6762 74.6408 32.4307 74.4558 32.4921C73.9009 32.7376 73.4076 33.1672 72.9452 33.5355C72.452 33.9344 71.9587 34.3333 71.4655 34.7016C71.3113 34.8243 71.3113 35.0391 71.4347 35.1926C72.3287 36.1746 73.3768 37.0031 74.5175 37.6782C74.8566 37.8931 75.1032 37.3714 74.7949 37.1872Z" fill="white"/>
<path d="M77.1676 32.1232C76.8594 32.5835 76.736 33.1358 76.5819 33.6575C76.4278 34.1485 76.2736 34.6395 76.1195 35.1612C75.9653 35.6522 75.8112 36.1432 75.6571 36.6649C75.5029 37.1865 75.2255 37.7389 75.1638 38.2606C75.1022 38.5982 75.5646 38.7516 75.7496 38.4447C75.9962 37.9844 76.1195 37.4014 76.3045 36.8797C76.4586 36.358 76.6436 35.8363 76.7977 35.3453C76.9518 34.8236 77.106 34.3019 77.2601 33.7803C77.4143 33.2586 77.5684 32.7369 77.5684 32.2152C77.5067 31.9697 77.2601 31.9697 77.1676 32.1232Z" fill="white"/>
<path d="M81.5766 34.5164C80.7751 33.78 80.0044 32.9821 79.0179 32.5218C78.8946 32.4604 78.7713 32.6138 78.8329 32.7366C79.3262 33.5345 80.0661 34.2096 80.7751 34.8233C80.1277 35.4678 79.4803 36.1429 78.8638 36.818C78.5555 37.1862 79.1104 37.6465 79.4187 37.309C80.1277 36.5418 80.8676 35.8053 81.6075 35.0688C81.7616 34.9154 81.7308 34.6699 81.5766 34.5164Z" fill="white"/>
<path d="M83.7354 50.718C83.2421 48.9995 82.8722 47.189 81.9473 45.624C81.6082 45.0409 81.115 44.4885 80.5909 44.1203C80.3443 43.9362 80.0668 43.752 79.7894 43.5986C79.6352 43.0155 79.5428 42.4939 79.4811 41.9415C79.4503 41.5119 79.4194 41.0823 79.4194 40.6219C79.4194 40.1616 79.4811 39.6706 79.4503 39.2103C79.3886 38.5966 78.9878 37.9522 78.3405 38.1056C77.6931 38.259 77.2615 39.0262 77.0765 39.6706C76.8607 40.4071 76.8607 41.2357 76.9224 42.0029C76.8299 41.6653 76.7374 41.3584 76.6449 41.0209C76.4291 40.1003 76.4908 39.2103 76.3983 38.2897C76.3366 37.676 76.2133 36.6633 75.4734 36.6019C74.9802 36.5406 74.5178 36.8781 74.2095 37.3077C74.1478 37.0009 74.0554 36.694 73.9012 36.4178C73.4696 35.7734 72.6989 35.712 72.144 36.2644C71.5274 36.8781 71.4041 38.3818 71.3117 39.2103C71.2192 40.1923 71.2192 40.8368 71.3425 41.8187C71.4041 42.3404 71.5275 42.5552 71.6508 43.0769C71.2808 42.7087 71.0034 42.5246 70.7876 41.9415C70.5101 41.205 70.2943 40.4685 70.171 39.7013C70.0477 39.0262 70.0785 38.2897 69.7702 37.676C69.5545 37.277 69.1537 36.9088 68.6913 36.9702C68.2288 37.0315 67.9514 37.4612 67.7973 37.8908C67.5815 38.5659 67.5815 39.3331 67.6739 40.0082C67.7048 40.1616 67.7356 40.3458 67.7356 40.4992C67.7973 41.2971 67.9822 42.3711 68.2597 43.0462C68.6913 44.1817 69.3695 44.7954 70.2635 45.5012C70.7876 45.9001 71.4041 46.2991 72.0207 46.5446C72.6373 46.8208 73.3771 47.1276 73.9937 47.4345C74.1478 47.5266 74.3328 47.4652 74.4869 47.5266C74.6103 47.5879 74.6719 47.5266 74.7952 47.6186C74.8877 48.5392 75.011 49.3371 75.1343 50.135C75.3193 51.4238 75.5659 52.682 75.7817 54.0016C75.9667 54.1243 76.0592 54.2471 76.2441 54.3698C76.7682 54.6767 77.354 54.8915 77.9397 55.0756C79.1112 55.3825 80.4059 55.4438 81.5774 55.1677C82.718 54.9222 84.691 53.6333 84.691 53.6333C84.691 53.6333 83.797 50.9021 83.7354 50.718Z" fill="#FFC5C5"/>
<path d="M76.3049 55.0757C76.2124 54.6767 76.1507 54.2778 76.0891 53.8789C75.9658 53.1731 75.8116 52.4673 75.6883 51.7615C75.565 51.0863 75.4109 50.3805 75.2876 49.7054C75.1642 49.061 75.1334 48.3859 74.9793 47.7414C75.0101 47.6801 74.9793 47.588 74.8868 47.5573C73.1296 47.0356 71.3107 46.2071 69.8618 45.041C69.1836 44.4579 68.6595 43.7214 68.3204 42.8929C68.043 42.2178 67.9196 41.4813 67.7655 40.7448C67.6422 40.0083 67.4881 39.1797 67.6422 38.4432C67.7347 37.9522 67.9813 37.3999 68.4746 37.1851C69.1219 36.8782 69.5227 37.4612 69.6768 38.0136C70.2009 39.7628 70.0776 41.7574 71.4649 43.1384C71.5265 43.1997 71.5882 43.1997 71.619 43.1691C71.5882 43.077 71.5882 42.9849 71.5574 42.9236C71.4649 42.8315 71.4032 42.7394 71.3107 42.6474C70.6942 41.8495 70.4476 40.8061 70.2626 39.8242C70.1701 39.2718 70.0776 38.6887 69.9235 38.1364C69.8002 37.7067 69.6768 37.2771 69.2761 37.0316C68.4437 36.5099 67.7039 37.4919 67.4881 38.1977C67.3339 38.7501 67.3339 39.3332 67.4264 39.8855C67.5805 40.8982 67.673 41.9109 68.043 42.8622C68.3821 43.7214 68.9061 44.55 69.6152 45.1637C71.0641 46.3912 72.9446 47.2198 74.7327 47.7721C74.671 48.3859 74.7943 49.0917 74.8868 49.7054C75.0101 50.4419 75.1642 51.2091 75.2876 51.9456C75.4417 52.6821 75.565 53.3879 75.7192 54.1244C75.7808 54.4926 75.8733 54.8302 75.9349 55.1984C75.9966 55.4746 76.0583 55.8122 76.2124 56.0577C76.2741 56.1497 76.3974 56.0884 76.4282 55.9963C76.4899 55.6587 76.3665 55.3519 76.3049 55.0757Z" fill="white"/>
<path d="M85.2143 54.7378C84.3203 52.5283 83.6112 50.2881 83.0255 47.9866C82.5939 46.2681 81.6999 44.3962 80.0043 43.537C79.6961 42.4629 79.6961 41.3582 79.6961 40.2841C79.6961 39.517 79.7577 38.3508 78.8329 38.0133C77.9697 37.7064 77.3223 38.5656 77.0757 39.2408C76.7366 40.1307 76.5208 41.1741 76.7674 42.0947C76.8907 41.2047 76.9524 40.3762 77.2606 39.517C77.4148 39.118 77.5689 38.7191 77.908 38.4429C78.278 38.136 78.7712 38.136 79.1103 38.5043C79.3878 38.8418 79.4186 39.3021 79.4186 39.7318C79.4186 40.1614 79.4186 40.591 79.4186 41.0206C79.4186 41.8799 79.5111 42.7391 79.7577 43.5983C79.7885 43.6904 79.881 43.7211 79.9427 43.6904C80.6209 44.2428 81.2683 44.7645 81.7924 45.5009C82.4089 46.3909 82.6556 47.4036 82.933 48.4469C83.4571 50.6257 84.1661 52.7431 84.9985 54.7992C84.9985 54.9833 85.2759 54.9219 85.2143 54.7378Z" fill="white"/>
<path d="M108.89 56.7025C108.397 55.1068 107.904 53.5418 107.472 51.9154C107.041 50.3196 106.702 48.6932 106.208 47.0975C106.177 47.0361 106.054 47.0361 106.085 47.1281C106.301 48.7546 106.794 50.3196 107.226 51.9154C107.657 53.5418 108.15 55.1682 108.644 56.7639C108.705 56.9787 108.952 56.8867 108.89 56.7025Z" fill="white"/>
<path d="M93.107 55.7222C93.0453 55.5688 93.0145 55.446 92.9528 55.2926C92.8603 55.0164 92.737 54.7095 92.6446 54.4334C92.4904 53.9117 92.3363 53.39 92.1513 52.899C92.213 52.8376 92.213 52.6842 92.0896 52.6535C90.949 52.316 89.9317 51.8556 89.0993 50.9964C88.267 50.1679 87.7121 49.0938 87.6196 47.9277C87.5271 46.7923 87.8354 45.5955 88.6061 44.7055C88.8527 44.4294 89.1918 44.2452 89.0377 43.8463C88.9452 43.5701 88.7602 43.3246 88.6369 43.0791C88.4828 42.8029 88.3903 42.4654 88.1128 42.2812C88.0512 42.5881 88.2361 42.8336 88.3594 43.1098C88.4828 43.386 88.8527 43.8463 88.7294 44.1532C88.6061 44.3987 88.267 44.6135 88.1128 44.8283C87.9895 45.0124 87.8662 45.2272 87.7737 45.4113C87.3113 46.3626 87.188 47.4981 87.4038 48.5414C87.8354 50.6588 89.7775 52.4387 91.9047 52.8683C91.9972 53.4207 92.1821 53.9424 92.3363 54.4641C92.4288 54.7709 92.5212 55.0471 92.6137 55.3233C92.6754 55.4767 92.7062 55.5995 92.7679 55.7529C92.8295 55.9064 92.8603 56.0598 92.9528 56.1825C93.0453 56.2746 93.1995 56.2439 93.1995 56.0905C93.2303 55.9984 93.1378 55.8757 93.107 55.7222Z" fill="white"/>
<path d="M112.96 64.0669C112.99 64.1282 111.726 64.8647 111.665 64.8647C107.904 65.1409 102.324 65.2944 98.5628 65.4785C94.9251 65.6933 91.2566 65.4785 87.6805 66.4298C87.4955 66.4912 87.2798 66.3377 87.3106 66.1229C87.8347 63.4838 88.7287 62.2256 89.7152 59.7093C90.7325 57.1009 91.7807 55.3824 91.7807 55.3824C91.7807 55.3824 103.218 55.5358 107.935 54.6152C107.996 54.6152 108.274 55.321 108.921 56.9781C110.031 59.7093 112.035 61.2437 112.96 64.0669Z" fill="#FFCE76"/>
<path d="M101.492 27.7657C101.492 31.5402 98.4095 34.5782 94.6485 34.5782C90.8567 34.5782 87.8047 31.5095 87.8047 27.7657C87.8047 23.9912 90.8875 20.9531 94.6485 20.9531C98.4095 20.9531 101.492 23.9912 101.492 27.7657Z" fill="#202B59"/>
<path d="M106.086 37.3089C105.562 37.6465 105.007 37.9534 104.421 38.2295C103.095 38.874 101.708 39.3343 100.321 39.7332C98.8719 40.1628 97.3922 40.4697 95.8816 40.3776C94.5868 40.2856 93.3537 39.948 92.2131 39.365C91.4424 38.966 90.7333 38.475 90.0859 37.892C90.5175 37.7385 90.9491 37.5851 91.3807 37.4317C92.7372 36.9407 94.1244 36.4497 95.5117 35.9894C95.635 36.0201 95.6966 35.9894 95.7583 35.9894C96.0666 35.8666 96.3749 35.6825 96.6215 35.4677C96.7448 35.3756 96.8373 35.2222 96.9914 35.1301C97.0531 35.0995 97.1147 35.0995 97.1764 35.0995C97.2689 35.0995 97.3305 35.1301 97.3614 35.0381C97.3922 34.9153 97.423 34.7926 97.5155 34.7005C97.5772 34.6085 97.6696 34.5778 97.7621 34.5471C97.6696 34.455 97.5463 34.3936 97.423 34.3016C97.3305 34.2402 97.4538 34.1175 97.5155 34.1788C100.043 35.928 103.188 36.3576 106.086 37.3089Z" fill="#FFC5C5"/>
<path d="M98.3163 27.8249C98.1314 28.101 97.9464 28.3465 97.7923 28.6227C97.7614 28.4386 97.6998 28.2238 97.6689 28.009C97.6381 27.9476 98.3472 27.7635 98.3163 27.8249Z" fill="#FFC5C5"/>
<path d="M100.258 37.1253C98.1618 37.3402 97.1137 37.6163 95.079 38.1073C94.9865 38.138 94.9249 38.0766 94.894 37.9846C94.7707 37.555 94.6166 37.1253 94.4933 36.6957C94.2775 36.082 94.0617 35.4376 93.8151 34.8238C93.5993 34.3021 93.3835 33.7498 93.1677 33.2281C92.9211 33.2588 92.8594 33.044 93.0135 33.0133C92.9827 32.8598 92.9211 32.7064 92.8594 32.553C92.8286 32.4916 92.9519 32.4302 92.9827 32.4916C93.0752 32.6757 93.1677 32.8291 93.2293 33.0133C93.5993 33.0133 93.9384 33.1053 94.2467 33.2894C95.4798 31.7858 96.6821 30.2207 97.7919 28.625C98.3776 31.4482 99.0866 34.118 100.289 36.7878C100.32 36.8798 100.351 37.1253 100.258 37.1253Z" fill="#FFC5C5"/>
<path d="M98.0703 33.4109C97.4537 34.5157 96.7755 35.6818 95.789 36.4796C95.3574 36.8172 94.9258 36.9399 94.4634 36.7251C94.2476 36.1114 94.0318 35.467 93.7852 34.8532C93.9393 34.7918 94.0934 34.6998 94.2476 34.6384C94.7408 34.4236 95.2032 34.2088 95.6965 33.994C96.1897 33.7792 96.683 33.5337 97.1762 33.3189C97.4229 33.2268 97.8236 32.9506 98.0394 33.2882C98.1011 33.2882 98.1011 33.3495 98.0703 33.4109Z" fill="#202B59"/>
<path d="M99.6105 30.1902C99.518 30.6505 98.809 30.3436 98.624 30.8039C98.4699 31.1722 98.5007 32.952 98.2849 33.2896C97.8841 33.9954 97.7608 33.9033 97.1443 34.3943C95.5412 35.6525 93.2291 35.9901 91.5336 34.7933C90.0846 33.7806 89.5297 31.8473 89.1598 30.1902C88.9748 29.3923 88.6974 28.5024 88.7899 27.7045C88.8823 26.5384 89.5297 25.5871 90.0846 24.6358C90.6395 23.838 91.4102 23.3163 92.2118 22.8253C92.9516 22.3957 93.7532 22.2422 94.5855 22.3343C96.2811 22.5184 97.9458 23.5925 98.8398 25.0961C99.4564 26.1395 99.703 27.367 99.6722 28.5638C99.6722 29.0548 99.6105 29.5458 99.4872 30.0368C99.5797 30.0368 99.6413 30.1288 99.6105 30.1902Z" fill="#FFC5C5"/>
<path d="M96.8369 63.5782L93.23 54.0651C93.0451 53.5435 92.3668 53.1445 91.6886 53.1445H74.9798C74.3324 53.1445 73.1918 53.881 73.5001 54.6482C73.5309 54.7709 77.1378 64.284 77.1378 64.284C77.3227 64.8057 78.001 65.2046 78.6792 65.2046H93.4767L95.2647 65.2966C96.6211 65.2046 97.0219 64.0692 96.8369 63.5782Z" fill="white"/>
<path d="M96.4971 64.2207L92.8902 54.7077C92.7052 54.186 92.027 53.7871 91.3488 53.7871H74.64C73.9926 53.7871 72.8519 54.5236 73.1602 55.2908C73.1911 55.4135 76.7979 64.9266 76.7979 64.9266C76.9829 65.4482 77.6611 65.8472 78.3393 65.8472H93.1368L94.9249 65.9392C96.2813 65.8779 96.6821 64.7424 96.4971 64.2207Z" fill="#202B59"/>
<path d="M100.999 67.2594H79.0494C78.5253 67.2594 78.0938 66.8298 78.0938 66.3081V65.8478C78.0938 65.3261 78.5253 64.8965 79.0494 64.8965H100.999C101.523 64.8965 101.955 65.3261 101.955 65.8478V66.3081C101.955 66.8298 101.523 67.2594 100.999 67.2594Z" fill="#202B59"/>
<path d="M85.5535 61.3664C85.831 62.1029 85.4302 62.686 84.6903 62.686C83.9505 62.686 83.1489 62.1029 82.8715 61.3664C82.594 60.6299 82.9948 60.0469 83.7347 60.0469C84.4745 60.0469 85.2761 60.6299 85.5535 61.3664Z" fill="white"/>
<path d="M91.7196 31.7541C91.6887 31.6927 91.6271 31.6927 91.5963 31.6313C91.5346 31.57 91.5346 31.5086 91.5654 31.4165C91.5963 31.2324 91.6887 31.079 91.6887 30.9255C91.7196 30.588 91.6271 30.2197 91.5038 29.9128C91.4113 29.6367 91.2571 29.3298 91.0105 29.115C90.7947 28.9309 90.4864 28.8081 90.209 28.8695C90.5173 28.9922 90.7947 29.1457 90.9797 29.3912C91.1955 29.6367 91.288 29.9435 91.3805 30.2504C91.4113 30.4038 91.4729 30.588 91.4729 30.7414C91.4729 30.9255 91.4113 31.079 91.3805 31.2324C91.3188 31.4472 91.3188 31.7848 91.5963 31.8461C91.7196 31.8154 91.7196 31.7848 91.7196 31.7541Z" fill="#FF88C4"/>
<path d="M95.2958 29.8837C95.2341 29.9143 95.1725 29.945 95.1108 29.9757C95.08 30.0064 94.9875 30.0678 94.9567 30.0371C94.9259 30.0064 94.895 29.945 94.8642 29.9143C94.8334 29.853 94.8026 29.8223 94.7717 29.7609C94.6484 29.5768 94.4635 29.4233 94.2785 29.362C94.0627 29.3006 93.8777 29.362 93.6928 29.4847C93.5386 29.6075 93.3536 29.7609 93.292 29.9757C93.292 30.0371 93.3536 30.0678 93.3845 30.0064C93.477 29.7916 93.6928 29.6688 93.9085 29.6075C94.0935 29.5461 94.3093 29.6075 94.4635 29.7609C94.6176 29.8837 94.7101 30.0985 94.8334 30.2212C94.895 30.2826 94.9875 30.3133 95.08 30.2826C95.2033 30.2519 95.3266 30.1905 95.4191 30.0985C95.4808 30.0371 95.4191 29.8223 95.2958 29.8837Z" fill="#202B59"/>
<path d="M95.4811 28.9916C95.4811 29.0529 95.4503 29.0836 95.3886 29.0836C94.8645 29.0223 94.3404 29.0223 93.8164 29.145C93.6006 29.1757 93.4156 29.2678 93.1998 29.2984C93.0457 29.3291 92.8607 29.3291 92.7374 29.2371C92.6141 29.145 92.6141 28.9609 92.7066 28.8381C92.799 28.6847 93.0148 28.654 93.169 28.5926C93.9397 28.3778 94.7104 28.4699 95.4194 28.8381C95.4503 28.8075 95.5119 28.8381 95.5427 28.8688C95.4811 28.9302 95.4811 28.9609 95.4811 28.9916Z" fill="#202B59"/>
<path d="M90.8566 29.2079C90.7642 29.3306 90.5175 29.2693 90.3634 29.2386C89.9626 29.1465 89.5619 28.9931 89.1611 28.8703C89.0686 28.8396 88.9453 28.809 88.8528 28.7783C88.7911 28.7476 88.7295 28.7169 88.7295 28.6555C88.7295 28.5635 88.7603 28.5021 88.822 28.4714C88.8836 28.4407 88.9145 28.4407 88.9453 28.4407C89.0378 28.3793 89.1303 28.3793 89.2536 28.3486C89.4385 28.318 89.6235 28.3486 89.8393 28.3793C90.1784 28.4407 90.4867 28.6248 90.7333 28.8396C90.795 28.901 90.9799 29.0851 90.8566 29.2079Z" fill="#202B59"/>
<path d="M93.4452 32.1233C93.3835 32.154 93.3219 32.1847 93.2602 32.246C93.1985 32.2767 93.1369 32.3381 93.0752 32.3688C92.9519 32.4608 92.8286 32.5222 92.6745 32.5836C92.5511 32.645 92.4278 32.7063 92.2737 32.737C92.212 32.7677 92.1504 32.7677 92.0579 32.7677C91.9346 32.9212 91.9654 32.9212 92.0579 32.9212C92.1504 32.9212 92.212 32.9212 92.3045 32.8905C92.4587 32.8598 92.6128 32.8291 92.7361 32.7677C92.8903 32.7063 93.0136 32.6143 93.1369 32.5529C93.1985 32.5222 93.2602 32.4608 93.3527 32.3995C93.4143 32.3688 93.5068 32.3074 93.5377 32.246C93.6301 32.1847 93.5376 32.0926 93.4452 32.1233Z" fill="#FF88C4"/>
<path d="M91.1955 30.221C91.0722 29.8834 90.7948 29.5459 90.4557 29.4231C90.3015 29.3618 90.1474 29.3618 90.0241 29.4845C89.9008 29.6379 89.9008 29.8221 89.9316 30.0062C89.7775 29.9755 89.6233 29.8834 89.5 29.8221C89.5925 30.0369 89.8083 30.1289 89.9932 30.1596C90.0549 30.1596 90.0857 30.1289 90.0857 30.0982C90.1166 29.9448 90.0549 29.73 90.1782 29.6072C90.2707 29.5152 90.4248 29.5766 90.5173 29.6379C90.7639 29.7607 90.9797 30.0062 91.0722 30.2824C91.1031 30.4051 91.2264 30.3437 91.1955 30.221Z" fill="#202B59"/>
<path d="M101.462 29.8204C101.462 29.8818 101.462 29.9432 101.4 29.9739C99.1499 30.9558 96.7453 30.0045 94.8031 28.7464C93.8166 28.1019 93.2309 27.3041 92.1827 26.1993C91.5353 25.5242 90.5488 23.4375 90.5488 23.4375C90.5488 23.4375 91.6895 21.7497 92.7684 21.4735C93.8783 21.1666 95.2039 21.1666 96.3445 21.2587C97.4851 21.3508 98.6258 21.6883 99.3965 22.5476C100.136 23.3761 100.475 24.4809 100.722 25.5242C101.092 26.9358 101.339 28.3781 101.462 29.8204Z" fill="#202B59"/>
<path d="M99.8893 30.5876C99.7968 31.4161 99.0261 32.0299 98.1938 31.9378C97.3614 31.8457 96.7448 31.0786 96.8373 30.25C96.9298 29.4215 97.7005 28.8077 98.5329 28.8998C99.3652 28.9918 99.9818 29.7283 99.8893 30.5876Z" fill="#FFC5C5"/>
<path d="M94.2469 30.2835C94.2469 30.1608 94.1853 30.0687 94.1544 29.9459C94.0311 29.6698 93.4454 29.6391 93.5687 30.038C93.6612 30.3756 93.9078 30.8359 94.1853 30.5904C94.2778 30.529 94.2778 30.4063 94.2469 30.2835Z" fill="#202B59"/>
<path d="M90.9793 30.5595C91.041 30.4367 90.9485 30.2219 90.8868 30.1298C90.7944 29.9764 90.6094 29.6081 90.3936 29.8536C90.2703 30.0071 90.4553 30.3753 90.5477 30.5288C90.6402 30.6515 90.7944 30.7743 90.9177 30.6515C90.9485 30.5901 90.9485 30.5595 90.9793 30.5595Z" fill="#202B59"/>
<path d="M98.6251 29.7883C98.5943 29.7269 98.5018 29.6962 98.4402 29.7269C98.2244 29.8496 98.0394 30.0031 97.8544 30.1872C97.762 30.2793 97.6695 30.3406 97.6078 30.4327C97.577 30.4634 97.5153 30.5247 97.4845 30.5861C97.4537 30.6168 97.4229 30.6475 97.4229 30.6782C97.4229 30.8316 97.4537 30.8623 97.5153 30.8623C97.7311 30.7396 97.762 30.6782 97.7928 30.6475C97.8853 30.5554 97.9469 30.4941 98.0394 30.402C98.2244 30.2486 98.3785 30.1258 98.5943 30.0031C98.656 29.9417 98.6868 29.8496 98.6251 29.7883Z" fill="#FF88C4"/>
<path d="M106.085 56.088C105.746 56.6403 105.098 56.7324 104.636 57.0699C104.358 57.2848 104.081 57.5303 103.865 57.8371C103.649 58.1133 103.495 58.4509 103.248 58.6964C102.909 59.0646 102.385 59.3101 101.923 59.0032C101.43 58.6657 101.553 57.8678 101.738 57.3154C101.923 56.7631 102.2 56.2721 102.509 55.8118C102.015 56.0266 101.676 56.5176 101.306 56.9165C100.936 57.3461 100.381 57.6837 99.8574 57.6223C99.3333 57.5609 98.9942 57.0393 98.9942 56.4562C98.9942 56.3948 98.9942 56.3028 98.9942 56.2414C98.6243 56.5176 98.0385 56.9472 97.6686 56.6096C97.0829 56.1186 97.3603 54.8912 97.5761 54.216C97.7919 53.4796 98.1927 52.7737 98.6551 52.2214C98.9634 51.8531 99.2717 51.5463 99.6416 51.2701C99.3641 51.1166 99.0867 50.9939 98.7784 51.0246C98.2852 51.0246 97.8536 51.2087 97.422 51.4235C97.1445 51.5463 96.8362 51.9145 96.528 51.9145C96.0039 51.9452 95.3873 51.7611 95.3565 51.178C95.3257 50.5336 96.0039 49.5209 96.4663 49.1834C97.6069 48.2934 99.3641 48.2934 100.597 48.7844C101.491 49.122 102.416 49.6743 103.094 50.3801C103.588 50.5029 103.865 50.8405 104.173 51.3315C104.327 51.5463 104.451 51.7611 104.543 52.0066C105.314 52.4055 105.961 53.5409 106.208 54.3081C106.393 54.8912 106.424 55.5663 106.085 56.088Z" fill="#FFC5C5"/>
<path d="M115.765 62.0096C115.056 62.9916 113.668 63.4212 112.312 63.4519C110.986 63.4519 109.322 63.053 106.855 60.3832C107.811 60.1377 108.767 59.3705 109.322 58.5726C110.401 57.069 110.586 55.6574 110.185 54.1537C110.154 54.0616 110.154 54.0003 110.123 53.9082C111.295 54.3071 115.21 56.4245 115.857 57.1304C117.152 58.5113 116.813 60.5366 115.765 62.0096Z" fill="#36BFE3"/>
<path d="M109.322 58.5764C108.736 59.3743 107.812 60.1415 106.856 60.387C106.794 60.3256 106.733 60.2949 106.671 60.2335C105.684 59.497 104.883 58.515 104.081 57.5637C103.681 57.1034 103.342 56.6431 103.311 55.9987C103.28 55.4463 103.372 54.8326 103.557 54.3109C103.711 53.912 102.879 50.2602 103.249 50.5364C104.544 51.4877 107.75 53.0527 110.185 54.1881C110.586 55.6304 110.432 57.0727 109.322 58.5764Z" fill="#FFC5C5"/>
<path d="M108.736 57.9286C108.427 58.6651 107.718 58.9412 107.04 58.9106C106.239 58.8492 105.499 58.4502 104.79 58.0513C104.05 57.6217 103.31 57.3148 102.508 57.0386C102.786 56.9159 103.063 56.9159 103.341 56.9773C102.971 56.517 102.724 55.8725 102.478 55.4122C101.984 54.4916 101.368 53.5403 101.214 52.4356C101.152 52.0366 101.152 51.4843 101.337 51.116C101.491 50.8091 101.799 50.7478 102.077 50.7171C102.909 50.5943 103.711 50.9626 104.42 51.4843C105.869 52.5583 107.133 54.1234 108.15 55.7191C108.551 56.3635 109.075 57.1 108.736 57.9286Z" fill="#FFC5C5"/>
<path d="M91.9361 23.8994C92.0594 24.5439 91.7203 24.6973 91.2579 25.0655C90.703 25.4952 90.1789 25.9862 89.7781 26.5692C89.3774 27.1523 89.0999 27.7967 88.9766 28.4718C88.8841 28.8707 88.8841 29.3004 88.915 29.6993C88.9458 30.0369 89.0999 30.5585 89.0074 30.8654C88.9766 30.804 88.8533 30.1903 88.8225 30.1903C88.1443 30.0062 87.9285 29.1162 87.8051 28.5639C87.6202 27.8274 87.5893 27.0602 87.7127 26.3237C87.9285 25.1576 88.5142 23.8381 89.5315 23.1322C90.4255 22.5799 91.7203 22.764 91.9361 23.8994Z" fill="#202B59"/>
<path d="M80.2205 68.3953C79.8814 68.8249 79.234 68.6714 78.7716 68.5487C77.7851 68.3032 76.8294 67.935 76.0587 67.2598C75.7196 66.953 75.4113 66.5847 75.1647 66.1858C74.9797 65.8482 74.7023 65.3265 74.7947 64.9276C74.918 64.4059 75.5038 64.6207 75.8429 64.7435C76.3361 64.9276 76.7986 65.1731 77.2302 65.4493C77.7234 65.7562 78.1858 66.0937 78.6483 66.4006C78.9565 66.6154 79.2956 66.8302 79.6348 67.0757C79.7889 66.9837 79.943 67.1371 79.9122 67.2905C79.9739 67.3519 80.0355 67.3826 80.0972 67.444C80.1588 67.5053 80.1588 67.536 80.128 67.5974C80.2205 67.6588 80.2821 67.7508 80.313 67.8429C80.4055 67.9963 80.3438 68.2111 80.2205 68.3953Z" fill="#FFCE76"/>
<path d="M81.762 68.1185C80.1589 66.9217 78.4942 65.8169 76.7986 64.7735C75.9355 64.2519 75.0723 63.7302 74.2091 63.2392C73.7775 62.9937 73.3459 62.7789 72.9143 62.5334C72.6985 62.4106 72.4519 62.2879 72.2361 62.1651C72.2053 62.1651 71.8045 61.9503 71.5887 61.889C71.5579 61.6741 71.4654 61.6435 71.3421 61.6741C71.2804 61.7048 71.2496 61.7662 71.2188 61.8276C71.2188 62.1344 71.6195 62.2572 71.8353 62.3799C72.2977 62.6254 72.7293 62.8709 73.1918 63.1164C74.1474 63.6381 75.1031 64.1905 76.0279 64.7735C77.9085 65.909 79.7273 67.1365 81.5153 68.3946C81.7003 68.5481 81.9469 68.2412 81.762 68.1185Z" fill="white"/>
<path d="M105.192 56.9772C104.637 56.9772 104.113 57.2534 103.743 57.683C103.404 58.0819 103.065 58.8184 102.448 58.8184C101.862 58.8184 101.832 58.0819 101.893 57.6523C101.986 57.0692 102.232 56.4862 102.602 56.0259C103.034 55.4428 103.589 55.0439 104.329 54.9825C103.743 54.6143 103.034 55.0746 102.633 55.4735C102.14 55.9645 101.801 56.5782 101.616 57.2227C101.462 57.7444 101.369 58.4502 101.801 58.8798C102.263 59.3708 102.972 59.0946 103.373 58.665C103.651 58.3581 103.805 58.0205 104.082 57.7137C104.39 57.4068 104.791 57.2534 105.223 57.2227C105.408 57.2534 105.377 56.9772 105.192 56.9772Z" fill="white"/>
<path d="M104.328 52.6521C102.386 51.9769 100.659 53.542 99.5805 54.9843C99.1181 55.5673 98.4707 56.6107 98.9639 57.3472C99.4263 58.0837 100.444 57.8075 100.968 57.3472C101.369 56.9789 101.646 56.5186 102.047 56.1197C102.232 55.9356 102.448 55.7515 102.694 55.6287C102.941 55.4753 103.218 55.4139 103.465 55.2605C103.557 55.1991 103.496 55.0457 103.403 55.0457C103.064 55.0457 102.694 55.2605 102.417 55.4446C102.078 55.6594 101.8 55.9356 101.553 56.2425C101.091 56.7948 100.474 57.7768 99.6113 57.4699C98.6556 57.1324 99.4263 55.8128 99.7963 55.2912C100.29 54.616 100.844 54.0023 101.523 53.5113C102.324 52.9589 103.342 52.6214 104.328 52.7134C104.328 52.7134 104.359 52.6828 104.328 52.6521Z" fill="white"/>
<path d="M103.681 51.2088C102.787 50.8405 101.832 50.6871 100.876 50.994C100.506 51.086 100.167 51.2701 99.8586 51.4543C99.7969 51.4849 99.7352 51.5156 99.7044 51.577C99.3037 51.8532 98.9645 52.1907 98.6871 52.559C98.0705 53.3262 97.5464 54.2775 97.454 55.2595C97.4231 55.7505 97.5156 56.4256 98.1014 56.579C98.6254 56.7018 98.8721 56.1494 99.057 55.7811C99.1495 55.597 99.3961 55.7505 99.3345 55.9039C99.1803 56.2721 98.9645 56.6711 98.5638 56.8245C98.1938 56.9779 97.7622 56.8245 97.5156 56.5176C96.8991 55.8425 97.1765 54.7685 97.4848 54.032C97.8239 53.1727 98.3788 52.3749 99.057 51.7611C99.1803 51.6384 99.3345 51.5156 99.4886 51.4236C99.5811 51.3622 99.6736 51.3008 99.7661 51.2394C100.968 50.503 102.633 50.2268 103.774 51.1474C103.743 51.1781 103.712 51.2394 103.681 51.2088Z" fill="white"/>
<path d="M103.896 51.0262C101.892 49.5839 99.0869 47.7427 96.6206 49.3077C96.0965 49.6453 95.6341 50.1669 95.5416 50.7807C95.3875 51.7627 96.2815 51.9161 96.9906 51.5479C97.453 51.333 97.8537 51.0262 98.3778 50.9648C98.8402 50.9034 99.3027 51.0262 99.7034 51.241C99.8576 51.333 99.8576 51.3944 99.8576 51.4558C99.7959 51.4865 99.7343 51.5172 99.7034 51.5785C99.6109 51.5172 99.5185 51.4865 99.4568 51.4251C98.7478 51.0876 98.0695 51.2717 97.3605 51.6706C96.8981 51.9161 96.374 52.1616 95.8499 51.9775C94.6168 51.5172 95.5108 49.8601 96.1582 49.3077C97.2372 48.4178 98.8094 48.3257 100.135 48.6633C101.615 49.0315 102.91 49.9214 103.989 50.9341C104.019 50.9955 103.958 51.0876 103.896 51.0262Z" fill="white"/>
<path d="M115.272 56.6731C114.964 56.3048 114.44 56.09 114.008 55.8445C113.484 55.5377 112.96 55.2615 112.436 55.016C111.357 54.4943 110.278 54.0033 109.199 53.5123C108.12 53.0213 107.01 52.5303 105.962 51.9779C104.883 51.4256 103.866 50.7811 102.849 50.1367C104.544 51.7631 106.856 52.6838 108.953 53.6351C110.032 54.126 111.141 54.617 112.19 55.1387C112.714 55.3842 113.207 55.6604 113.7 55.9366C114.193 56.2128 114.656 56.6117 115.18 56.7958C115.272 56.8265 115.334 56.7345 115.272 56.6731Z" fill="white"/>
<path d="M102.54 24.4811C102.047 25.0335 101.338 25.2176 100.629 25.3097C99.8887 25.4017 99.0872 25.3403 98.3781 25.0642C97.6691 24.788 97.1141 24.2663 96.7442 23.5912C96.5284 23.1922 96.3434 22.7626 96.1893 22.333C96.0043 21.8727 95.7885 21.4431 95.8194 20.9521C95.8194 20.8907 95.8502 20.86 95.881 20.8293C95.881 20.768 95.881 20.6759 95.9119 20.6145C96.0968 19.8473 96.9908 19.5405 97.6382 19.295C99.1488 18.7733 100.998 18.7426 102.016 20.1849C102.447 20.768 102.632 21.4738 102.756 22.1796C102.91 22.9467 103.095 23.8367 102.54 24.4811Z" fill="#202B59"/>
<path d="M98.4088 30.9258C98.2855 30.8951 98.1622 30.8337 98.0697 30.803C97.8231 30.711 97.6073 30.5882 97.3607 30.4655C97.2374 30.4041 97.1449 30.5882 97.2682 30.6496C97.484 30.7723 97.7306 30.8951 97.9772 31.0178C98.1005 31.0792 98.2239 31.1099 98.3472 31.1713C98.4705 31.202 98.6246 31.3247 98.7479 31.2327C98.7171 30.9872 98.5321 30.9565 98.4088 30.9258Z" fill="#FF88C4"/>
<path d="M77.7538 43.6293C76.9523 42.5859 76.829 41.3584 76.7057 40.1003C76.644 39.4558 76.5824 38.7807 76.5207 38.1363C76.4899 37.7373 76.4282 37.3077 76.2124 36.9395C75.75 36.1723 74.7327 36.2644 74.2086 36.9088C73.9003 37.3077 73.7462 37.7987 73.6229 38.259C73.4687 38.8114 73.4071 39.3638 73.3763 39.9161C73.3146 41.1129 73.3763 42.5859 73.9928 43.66C74.0545 43.7213 74.1778 43.6907 74.1778 43.5986C74.0545 42.9542 73.8387 42.3097 73.777 41.6346C73.6845 40.9902 73.6845 40.3151 73.7462 39.6706C73.8078 39.0262 73.9312 38.3818 74.147 37.7987C74.3319 37.2463 74.8252 36.5099 75.5342 36.7554C76.0891 36.9395 76.12 37.7067 76.1816 38.1977C76.2433 38.8728 76.3049 39.5479 76.3974 40.223C76.5207 41.5119 76.6132 42.77 77.4147 43.8441C77.5689 44.1203 77.9388 43.8748 77.7538 43.6293Z" fill="white"/>
<path d="M74.3945 37.2796C74.4254 37.4637 74.1479 37.4637 74.1171 37.3102C74.0863 36.8806 73.9321 36.451 73.5622 36.2055C73.2231 35.9293 72.699 35.9293 72.3599 36.2362C71.7742 36.7886 71.62 37.7399 71.4967 38.4764C71.2501 39.9493 71.3117 41.453 71.5892 42.926C71.5892 43.0181 71.62 43.1101 71.6508 43.1715C71.6508 43.2329 71.6817 43.2942 71.6817 43.3863C71.7125 43.4477 71.5892 43.509 71.5584 43.417C71.5275 43.3249 71.4967 43.2329 71.4659 43.1408C71.4042 42.9874 71.3734 42.8032 71.3426 42.6498C70.9418 40.9006 70.9726 38.9673 71.4967 37.2796C71.7433 36.5737 72.1441 35.6838 73.0381 35.7452C73.8705 35.8066 74.3021 36.5431 74.3945 37.2796Z" fill="white"/>
<path d="M68.7833 51.0243C68.0743 51.546 67.3961 52.0677 66.687 52.5894C66.1013 53.0497 65.4231 53.4793 65.0223 54.0931C64.2208 55.2899 64.5291 56.8549 64.9915 58.1438C64.9606 58.3893 65.0223 58.6041 65.1148 58.8803C65.1764 59.0337 65.3922 59.003 65.4539 58.8496C65.8238 57.5914 66.9028 56.8549 67.5502 55.7502C67.9201 55.1364 68.0743 54.3999 68.2901 53.6941C68.5675 52.8656 68.8142 52.0063 69.0608 51.1778C69.0916 51.055 68.9066 50.9323 68.7833 51.0243ZM67.9201 53.6021C67.6735 54.3692 67.4885 55.1978 66.9953 55.8422C66.4404 56.6094 65.5464 57.3152 65.2073 58.2665C65.2073 58.2051 65.2073 58.1438 65.1764 58.0824C64.8065 56.6708 64.4366 55.1671 65.4231 54.0317C65.8855 53.51 66.5329 53.1111 67.0878 52.6814C67.581 52.3132 68.0743 51.9756 68.5367 51.6074C68.3517 52.2518 68.1359 52.9269 67.9201 53.6021Z" fill="#202B59"/>
<path d="M55.8967 49.339C55.8659 49.2776 55.8043 49.2469 55.7426 49.1855C55.7426 49.0628 55.681 48.9093 55.6501 48.8173C55.5885 48.5718 55.496 48.357 55.3727 48.1422C55.1569 47.7432 54.8794 47.375 54.5095 47.0988C53.8004 46.5157 52.9373 46.2089 52.1049 45.9327C51.9508 45.8713 51.735 46.0861 51.9199 46.2089C52.629 46.7305 52.8448 47.6205 53.3072 48.3263C53.523 48.6638 53.8313 48.94 54.2012 49.0935C54.4478 49.1855 54.6945 49.2162 54.9411 49.2776C55.2185 49.339 55.4343 49.4003 55.6501 49.5845C55.8043 49.6151 55.9892 49.4617 55.8967 49.339ZM54.5403 48.8173C54.1087 48.6945 53.8004 48.4183 53.5538 48.0501C53.2147 47.5591 52.9989 46.9454 52.629 46.4544C53.2147 46.6692 53.7696 46.9147 54.2629 47.2829C54.602 47.5284 54.8794 47.866 55.0952 48.2342C55.2185 48.449 55.311 48.6638 55.3727 48.9093C55.126 48.9093 54.7869 48.8786 54.5403 48.8173Z" fill="#202B59"/>
<path d="M62.5873 28.4391C62.5873 28.8687 62.2482 29.2062 61.8166 29.2062C61.385 29.2062 61.0459 28.8687 61.0459 28.4391C61.0459 28.0094 61.385 27.6719 61.8166 27.6719C62.2482 27.6719 62.5873 28.0094 62.5873 28.4391Z" fill="#36D7BE"/>
<path d="M62.5873 32.7965C62.5873 33.2261 62.2482 33.5636 61.8166 33.5636C61.385 33.5636 61.0459 33.2261 61.0459 32.7965C61.0459 32.3669 61.385 32.0293 61.8166 32.0293C62.2482 32.0293 62.5873 32.3669 62.5873 32.7965Z" fill="#36D7BE"/>
<path d="M62.5873 36.0504C62.5873 36.48 62.2482 36.8176 61.8166 36.8176C61.385 36.8176 61.0459 36.48 61.0459 36.0504C61.0459 35.6208 61.385 35.2832 61.8166 35.2832C62.2482 35.2832 62.5873 35.6208 62.5873 36.0504Z" fill="#36D7BE"/>
<path d="M62.5873 39.8258C62.5873 40.2554 62.2482 40.5929 61.8166 40.5929C61.385 40.5929 61.0459 40.2554 61.0459 39.8258C61.0459 39.3962 61.385 39.0586 61.8166 39.0586C62.2482 39.0586 62.5873 39.3962 62.5873 39.8258Z" fill="#36D7BE"/>
<path d="M62.5873 46.1773C62.5873 46.607 62.2482 46.9445 61.8166 46.9445C61.385 46.9445 61.0459 46.607 61.0459 46.1773C61.0459 45.7477 61.385 45.4102 61.8166 45.4102C62.2482 45.4408 62.5873 45.7784 62.5873 46.1773Z" fill="#36D7BE"/>
<path d="M61.848 46.3925H59.875V28.2871H61.848V28.5633H60.1833V46.1164H61.848V46.3925Z" fill="#36D7BE"/>
<path d="M61.8165 32.6445H59.9668V32.9514H61.8165V32.6445Z" fill="#36D7BE"/>
<path d="M61.879 35.8965H60.0293V36.2034H61.879V35.8965Z" fill="#36D7BE"/>
<path d="M61.8165 39.6719H59.9668V39.9787H61.8165V39.6719Z" fill="#36D7BE"/>
</g>
<defs>
<linearGradient id="paint0_linear_1171_8261" x1="47.8116" y1="-4.22217" x2="-6.16096" y2="172.753" gradientUnits="userSpaceOnUse">
<stop offset="0.0239582" stop-color="#5EBBFF" stop-opacity="0.5"/>
<stop offset="0.685417" stop-color="#A174FF"/>
</linearGradient>
</defs>
</svg>
