
<svg width="30" height="40" viewBox="0 0 30 40" fill="none" xmlns="http://www.w3.org/2000/svg">
<path fill-rule="evenodd" clip-rule="evenodd" d="M5.72096 23.8438L2.12307 36.7338C1.96761 37.2907 2.26761 37.5431 2.78979 37.2948L7.07995 35.2541C7.60206 35.0057 8.28401 35.2011 8.59542 35.6883L11.1379 39.6661C11.4493 40.1533 11.8485 40.1014 12.0251 39.5509L16.0924 26.8685L5.72096 23.8438Z" fill="#29AEFD"/>
<path fill-rule="evenodd" clip-rule="evenodd" d="M24.7419 23.3691L27.9688 36.357C28.1082 36.9181 27.8011 37.1619 27.2863 36.8987L23.0568 34.7359C22.542 34.4727 21.8547 34.6484 21.5295 35.1264L18.8737 39.0299C18.5485 39.508 18.1509 39.4447 17.9902 38.8893L14.2881 26.0959L24.7419 23.3691Z" fill="#29AEFD"/>
<path fill-rule="evenodd" clip-rule="evenodd" d="M24.7387 23.3613L14.2846 26.0872L14.3629 26.3573L5.71824 23.8364L5.23926 25.5529C5.40246 25.5907 5.56738 25.6149 5.73262 25.6202C6.06793 25.6317 6.13809 25.7931 6.20527 26.0658C6.75941 28.3296 8.6734 29.4125 10.9425 28.7398C11.1835 28.6684 11.3178 28.6729 11.4704 28.8918C11.7352 29.2708 12.1411 29.617 12.5146 29.8823C12.8308 30.1069 13.2222 30.2999 13.5893 30.4227C13.6544 30.4445 13.7195 30.4629 13.785 30.4785C14.1603 30.5684 14.5487 30.5619 14.9284 30.4834L15.2586 29.4531L15.506 30.3073C16.0821 30.0745 16.6063 29.6901 16.99 29.2416C17.1976 28.999 17.354 29.1513 17.5396 29.2371C19.6425 30.2116 21.7339 29.3636 22.5944 27.1905C22.6546 27.0389 22.6591 26.8505 22.9108 26.848C23.7475 26.8398 24.4554 26.7005 25.1768 26.255C25.2589 26.2037 25.3389 26.1487 25.417 26.0912L24.7387 23.3613Z" fill="#074785"/>
<path fill-rule="evenodd" clip-rule="evenodd" d="M13.6383 28.9807C13.5726 28.9651 13.5077 28.9467 13.4426 28.9249C13.0754 28.8021 12.6841 28.6091 12.3681 28.3841C11.9942 28.1192 11.5883 27.7731 11.3238 27.3941C11.1708 27.1752 11.037 27.1707 10.7958 27.2425C8.52678 27.9143 6.61279 26.8319 6.05842 24.568C5.99131 24.2953 5.92147 24.1335 5.586 24.1224C4.59553 24.0896 3.60444 23.4379 3.05233 22.6277C2.41358 21.6906 2.26326 20.7133 2.51256 19.6596C2.57905 19.3779 2.56162 19.2346 2.33412 19.0929C1.01147 18.2704 0.588733 17.0031 0.655061 15.5401C0.687718 14.8178 1.09178 14.2018 1.51803 13.6409C1.7028 13.397 1.66795 13.2356 1.54803 13.0217C0.75303 11.6053 0.887718 10.2264 1.77287 8.91439C2.1285 8.38752 2.70647 8.08408 3.2742 7.83111C3.56717 7.70056 3.59061 7.53877 3.54498 7.29806C3.18545 5.419 4.92022 3.33127 7.02475 3.42002C7.4674 3.43853 7.63725 3.25291 7.84029 2.82416C8.71967 0.964782 10.6015 0.30697 12.4304 0.906501C12.7812 1.02228 12.984 1.02845 13.2932 0.779235C14.7744 -0.411234 17.2156 -0.258499 18.3872 1.38127C18.6475 1.7447 18.9489 1.57384 19.2181 1.504C20.7385 1.10689 22.0186 1.46791 23.0617 2.65213C23.453 3.09681 23.6389 3.63642 23.7772 4.1933C23.8329 4.41588 23.8524 4.55627 24.1557 4.57267C26.2592 4.68806 27.9268 6.8115 27.3474 8.97103C27.186 9.57345 27.7434 9.68556 28.0215 9.90439C28.6027 10.3618 28.976 10.9503 29.1701 11.6053C29.4977 12.7119 29.414 13.8145 28.6734 14.7762C28.4221 15.1031 28.3295 15.3137 28.6071 15.7601C28.9703 16.3445 29.0775 17.0865 29.1356 17.7993C29.0447 18.4863 28.9135 19.1495 28.4558 19.6924C28.0562 20.1667 27.5058 20.489 26.997 20.831C26.7529 20.9949 26.6502 21.1074 26.6502 21.4022C26.6502 22.391 26.4502 23.3302 25.7911 24.1132C25.5758 24.3691 25.3136 24.5813 25.0298 24.7571C24.3087 25.2027 23.6008 25.3419 22.7644 25.3501C22.5126 25.3525 22.5083 25.541 22.4479 25.6926C21.5872 27.8657 19.4961 28.7137 17.3932 27.7396C17.2076 27.653 17.0513 27.5006 16.8435 27.7437C16.092 28.6214 14.802 29.2592 13.6383 28.9807Z" fill="#FFA4AC"/>
<path fill-rule="evenodd" clip-rule="evenodd" d="M26.5985 13.3863C27.5925 19.8132 22.2049 25.6857 16.0157 26.1802C9.88028 26.6696 4.04614 22.0816 3.40309 15.5467C2.7984 9.39815 7.58832 3.46815 13.9477 2.84065C19.9407 2.24979 26.3812 7.0037 26.5985 13.3863Z" fill="#F9D555"/>
<path fill-rule="evenodd" clip-rule="evenodd" d="M25.3139 13.512C26.1974 19.2261 21.4077 24.4473 15.9047 24.8868C10.45 25.3221 5.26259 21.2432 4.69134 15.4326C4.15361 9.96662 8.41212 4.69396 14.0663 4.13592C19.3943 3.61068 25.1207 7.83693 25.3139 13.512Z" fill="#FD6085"/>
<path fill-rule="evenodd" clip-rule="evenodd" d="M3.74004 34.7062C3.51277 35.2277 4.32191 35.58 4.54941 35.0581C4.77668 34.5366 3.96754 34.1843 3.74004 34.7062Z" fill="white"/>
<path fill-rule="evenodd" clip-rule="evenodd" d="M5.93782 28.3379C5.37157 29.9398 4.83954 31.5528 4.27329 33.1543C4.08829 33.6787 4.90095 33.9666 5.08595 33.4426C5.65204 31.8407 6.18423 30.2273 6.75009 28.6258C6.93571 28.1018 6.12282 27.8139 5.93782 28.3379Z" fill="white"/>
<path fill-rule="evenodd" clip-rule="evenodd" d="M13.6085 11.7243L13.5083 15.378C13.2322 15.7869 12.8626 16.1434 12.4084 16.4134C10.7707 17.3859 8.65292 16.8639 7.67846 15.2472C6.70362 13.6309 7.24112 11.5317 8.87877 10.5589C9.32729 10.2926 9.8119 10.1383 10.2992 10.0879L13.6085 11.7243Z" fill="white"/>
<path fill-rule="evenodd" clip-rule="evenodd" d="M10.2993 10.0887C9.45138 10.7264 8.94341 11.7735 9.04895 12.8979C9.20974 14.6119 10.7342 15.8566 12.4544 15.6784C12.8305 15.6394 13.1856 15.5355 13.5081 15.3786C14.2277 14.3138 14.3129 12.893 13.6087 11.7251C12.9011 10.5514 11.591 9.95554 10.2993 10.0887Z" fill="#074785"/>
<path fill-rule="evenodd" clip-rule="evenodd" d="M21.7713 11.4089L21.9891 15.0582C21.7496 15.4893 21.4124 15.8764 20.9834 16.1846C19.4363 17.2958 17.2813 16.9607 16.1699 15.4344C15.0581 13.9084 15.4115 11.7715 16.958 10.6595C17.3818 10.3549 17.8512 10.1591 18.3323 10.0664L21.7713 11.4089Z" fill="white"/>
<path fill-rule="evenodd" clip-rule="evenodd" d="M18.3328 10.0664C17.5436 10.7755 17.1282 11.8626 17.3315 12.9737C17.6403 14.6668 19.2671 15.7748 20.9655 15.4474C21.3369 15.376 21.681 15.2417 21.989 15.0573C22.6136 13.9334 22.5754 12.5118 21.7717 11.4084C20.9649 10.3013 19.6077 9.82164 18.3328 10.0664Z" fill="#074785"/>
<path fill-rule="evenodd" clip-rule="evenodd" d="M19.9448 8.29117C19.1917 7.80289 18.3061 7.73765 17.5064 8.15281C17.1053 8.3614 17.46 8.9646 17.8589 8.75765C18.4435 8.45374 19.0535 8.54703 19.5931 8.89687C19.9725 9.14328 20.3215 8.53593 19.9448 8.29117Z" fill="#074785"/>
<path fill-rule="evenodd" clip-rule="evenodd" d="M11.9191 8.18645C11.1028 7.81278 10.217 7.87685 9.48688 8.40489C9.12016 8.66974 9.55875 9.21466 9.9236 8.95145C10.4577 8.56583 11.0746 8.56919 11.6595 8.83645C12.0709 9.02458 12.3273 8.37372 11.9191 8.18645Z" fill="#074785"/>
<path d="M10.7906 18.0726C10.7711 18.6081 10.1371 19.0196 9.37424 18.9916C8.61151 18.9641 8.00947 18.5075 8.02877 17.9711C8.04869 17.4357 8.68252 17.0238 9.44549 17.0522C10.2077 17.0801 10.8103 17.5368 10.7906 18.0726Z" fill="#FFA4AC"/>
<path d="M21.7624 18.2117C21.7429 18.7476 21.1089 19.1586 20.3461 19.1306C19.5832 19.1031 18.9814 18.6461 19.0004 18.1102C19.0204 17.5743 19.6544 17.1628 20.4174 17.1908C21.1795 17.2192 21.7822 17.6758 21.7624 18.2117Z" fill="#FFA4AC"/>
<path d="M13.203 12.0158C12.9248 11.5986 12.5812 11.2532 12.1114 11.061C11.8999 10.9744 11.7897 11.3103 11.9987 11.3965C12.3762 11.5505 12.6653 11.8424 12.8887 12.1771C13.0131 12.364 13.3293 12.2055 13.203 12.0158Z" fill="white"/>
<path d="M11.5584 10.8184C11.5036 10.8045 11.4498 10.7884 11.3954 10.7745C11.3022 10.7503 11.204 10.7898 11.1714 10.8858C11.1429 10.9724 11.1899 11.0849 11.2829 11.1091C11.3375 11.1235 11.3914 11.1395 11.4454 11.1535C11.5391 11.1781 11.6372 11.1383 11.6697 11.0418C11.6984 10.9556 11.6512 10.8427 11.5584 10.8184Z" fill="white"/>
<path d="M13.4284 12.6417C13.3923 12.5526 13.2704 12.5243 13.1907 12.5653C13.0997 12.6121 13.0782 12.7136 13.1143 12.8027C13.1139 12.8006 13.1143 12.7994 13.1139 12.7969C13.1143 12.8927 13.1808 12.9772 13.2808 12.9826C13.3726 12.9875 13.4668 12.9119 13.4668 12.8155C13.4666 12.7518 13.4522 12.7005 13.4284 12.6417Z" fill="white"/>
<path d="M13.1125 12.8027C13.1132 12.8052 13.1138 12.8081 13.1142 12.811C13.1142 12.8085 13.1138 12.806 13.1138 12.8031C13.0953 12.7563 13.1096 12.7908 13.1125 12.8027Z" fill="white"/>
<path d="M13.1143 12.8105C13.1145 12.8364 13.1159 12.8237 13.1143 12.8105V12.8105Z" fill="white"/>
<path d="M21.4063 11.7321C21.1279 11.3153 20.7842 10.97 20.3141 10.7778C20.103 10.6912 19.9928 11.0271 20.202 11.1129C20.5796 11.2673 20.8685 11.5588 21.0918 11.8939C21.2164 12.0807 21.5326 11.9222 21.4063 11.7321Z" fill="white"/>
<path d="M19.7617 10.5357C19.7071 10.5213 19.6532 10.5057 19.5989 10.4913C19.5054 10.4671 19.4073 10.5066 19.3744 10.6026C19.3461 10.6892 19.3931 10.8022 19.4861 10.8259C19.5407 10.8407 19.5947 10.8567 19.6492 10.8707C19.7426 10.8949 19.8405 10.8551 19.8732 10.759C19.9018 10.6725 19.8545 10.5599 19.7617 10.5357Z" fill="white"/>
<path d="M21.6315 12.3585C21.5956 12.2694 21.4736 12.2411 21.3939 12.2821C21.303 12.3293 21.2812 12.4304 21.3174 12.5194C21.3172 12.5174 21.3174 12.5162 21.3174 12.5137C21.3174 12.6098 21.3839 12.694 21.4841 12.6998C21.5761 12.7047 21.6701 12.6291 21.6701 12.5327C21.6697 12.469 21.6555 12.4177 21.6315 12.3585Z" fill="white"/>
<path d="M21.3156 12.5195C21.3164 12.5219 21.3168 12.5252 21.3172 12.5277C21.3172 12.5257 21.3172 12.5228 21.3172 12.5199C21.2983 12.4731 21.3127 12.5077 21.3156 12.5195Z" fill="white"/>
<path d="M21.3174 12.5273C21.3178 12.5537 21.3193 12.5409 21.3174 12.5273V12.5273Z" fill="white"/>
<path fill-rule="evenodd" clip-rule="evenodd" d="M16.2671 17.3732C16.1647 16.8406 15.3122 16.8854 15.4158 17.4237C15.4984 17.8516 15.4898 18.3226 14.9591 18.3485C14.4536 18.3731 14.3827 17.9103 14.3533 17.5095C14.3137 16.9613 13.4625 17.0117 13.5023 17.5604C13.5703 18.5012 14.0054 19.1742 15.0102 19.1997C16.0098 19.2248 16.4309 18.2249 16.2671 17.3732Z" fill="#074785"/>
<path d="M5.04931 15.0502C4.96017 14.9409 4.78095 13.4096 4.61853 13.4219C4.45548 13.4347 4.31384 14.9528 4.23783 15.053C4.08509 15.2534 2.96853 15.3955 2.97759 15.5902C2.98681 15.7844 4.08345 15.8759 4.2383 16.0657C4.3247 16.1712 4.50642 17.7066 4.66908 17.6947C4.83189 17.6823 4.97111 16.1687 5.05017 16.0648C5.19759 15.871 6.32275 15.7216 6.31369 15.5261C6.3047 15.331 5.19838 15.2333 5.04931 15.0502Z" fill="white"/>
<path d="M24.5212 30.4955C24.4319 30.3859 24.2526 28.855 24.0904 28.8673C23.9273 28.88 23.7854 30.3981 23.7095 30.4984C23.5568 30.6987 22.4402 30.8409 22.4493 31.0355C22.4585 31.2297 23.5549 31.3212 23.7099 31.511C23.7963 31.6166 23.9783 33.1519 24.1408 33.14C24.3034 33.1277 24.4426 31.6137 24.5219 31.5102C24.6694 31.3163 25.7945 31.1669 25.7855 30.9714C25.7763 30.7763 24.6702 30.6782 24.5212 30.4955Z" fill="white"/>
<path d="M23.6596 6.81187C23.5704 6.70265 23.3912 5.17132 23.2288 5.18367C23.0662 5.1964 22.9241 6.71453 22.8482 6.81476C22.6954 7.01515 21.5789 7.15726 21.5879 7.35187C21.5972 7.54609 22.6936 7.63765 22.8487 7.82742C22.9353 7.93296 23.1168 9.46828 23.2794 9.45601C23.4422 9.44414 23.5815 7.93007 23.6607 7.82656C23.8081 7.63273 24.933 7.48328 24.924 7.28781C24.9149 7.09273 23.8087 6.99507 23.6596 6.81187Z" fill="white"/>
<path d="M13.1876 6.21289C12.6562 6.21289 12.6562 7.03664 13.1876 7.03664C13.7187 7.03656 13.7187 6.21289 13.1876 6.21289Z" fill="white"/>
<path d="M12.0312 20.957C11.5 20.957 11.5 21.7808 12.0312 21.7808C12.5626 21.7808 12.5626 20.957 12.0312 20.957Z" fill="white"/>
<path d="M18.624 34.0918C18.0928 34.0918 18.0928 34.9159 18.624 34.9159C19.1554 34.9159 19.1554 34.0918 18.624 34.0918Z" fill="white"/>
<path d="M7.93371 30.5918C7.4023 30.5918 7.4023 31.4155 7.93371 31.4155C8.46488 31.4155 8.46488 30.5918 7.93371 30.5918Z" fill="white"/>
<path d="M11.4698 34.0918C10.9385 34.0918 10.9385 34.9159 11.4698 34.9159C12.001 34.9159 12.001 34.0918 11.4698 34.0918Z" fill="white"/>
<path fill-rule="evenodd" clip-rule="evenodd" d="M24.2273 11.9992C23.5357 12.0682 23.6421 13.1408 24.3339 13.0718C25.0256 13.0028 24.919 11.9307 24.2273 11.9992Z" fill="white"/>
<path fill-rule="evenodd" clip-rule="evenodd" d="M20.8279 21.3723C20.1362 21.4413 20.2429 22.5135 20.9344 22.4449C21.6261 22.3759 21.5196 21.3037 20.8279 21.3723Z" fill="white"/>
<path fill-rule="evenodd" clip-rule="evenodd" d="M24.0149 14.2128C24.0071 16.4373 23.4179 18.8596 21.7556 20.4385C21.3696 20.8053 21.9531 21.3867 22.3381 21.0213C24.1556 19.2946 24.8305 16.6488 24.8387 14.2128C24.8403 13.6814 24.0165 13.6819 24.0149 14.2128Z" fill="white"/>
</svg>
