
<svg width="40" height="40" viewBox="0 0 40 40" fill="none" xmlns="http://www.w3.org/2000/svg">
<path fill-rule="evenodd" clip-rule="evenodd" d="M18.8508 1.89814C19.4829 0.617285 20.5172 0.617285 21.1492 1.89814L25.4206 10.5528C26.0527 11.8335 27.7263 13.0495 29.1398 13.2549L38.6908 14.6429C40.1043 14.8482 40.4237 15.8317 39.4013 16.8287L32.4898 23.5656C31.4671 24.5624 30.828 26.5297 31.0694 27.9373L32.7008 37.45C32.9424 38.8577 32.1056 39.4658 30.8413 38.8008L22.2986 34.3097C21.0343 33.6451 18.966 33.6451 17.7017 34.3097L9.15862 38.8009C7.8944 39.4659 7.05768 38.8577 7.29932 37.4501L8.93065 27.9374C9.17213 26.5298 8.53291 24.5625 7.5101 23.5656L0.598929 16.8287C-0.423884 15.8317 -0.10404 14.8482 1.30924 14.6429L10.8603 13.2549C12.2738 13.0495 13.9473 11.8335 14.5795 10.5528L18.8508 1.89814Z" fill="#F1CD4F"/>
<path d="M19.8424 19.1745C19.666 21.3278 17.7777 22.9304 15.6244 22.7539C13.471 22.5777 11.8685 20.6897 12.0445 18.5362C12.2209 16.3827 14.109 14.7802 16.2624 14.9566C18.4159 15.1326 20.0185 17.0211 19.8424 19.1745Z" fill="white"/>
<path d="M19.1352 19.1171C19.0048 20.709 17.6086 21.8945 16.0162 21.764C14.4238 21.6338 13.2389 20.2374 13.3692 18.6453C13.4998 17.0531 14.8962 15.8678 16.4881 15.9981C18.0803 16.1285 19.2652 17.525 19.1352 19.1171Z" fill="#074785"/>
<path d="M15.0091 23.6696C14.9781 24.1542 14.3937 24.5107 13.7045 24.4663C13.0147 24.4223 12.4811 23.9937 12.512 23.5096C12.543 23.0253 13.1273 22.6684 13.8166 22.7127C14.5062 22.757 15.0401 23.1852 15.0091 23.6696Z" fill="#29AEFD"/>
<path d="M27.7634 23.8164C27.7335 24.2849 27.1664 24.6298 26.4966 24.5869C25.8266 24.5438 25.3082 24.1296 25.3381 23.6609C25.3683 23.1924 25.9357 22.8475 26.6051 22.8903C27.2749 22.9335 27.7933 23.348 27.7634 23.8164Z" fill="#29AEFD"/>
<path d="M18.6619 17.8411C18.3623 17.3642 17.9867 16.9651 17.4646 16.7348C17.2298 16.631 17.0955 17.0051 17.328 17.1081C17.7475 17.293 18.063 17.6296 18.3036 18.0128C18.4382 18.2269 18.7985 18.0583 18.6619 17.8411Z" fill="white"/>
<path d="M16.8508 16.4471C16.7901 16.4296 16.7303 16.4102 16.6694 16.3924C16.5654 16.3622 16.4537 16.4039 16.4145 16.5108C16.3794 16.6073 16.429 16.7354 16.5327 16.7653C16.5936 16.7831 16.6534 16.8024 16.7141 16.8201C16.8186 16.8504 16.9302 16.8086 16.9692 16.7016C17.0043 16.6055 16.955 16.4771 16.8508 16.4471Z" fill="white"/>
<path d="M18.8968 18.551C18.8586 18.4498 18.7224 18.414 18.6319 18.458C18.5283 18.5079 18.5009 18.621 18.5386 18.7223C18.5384 18.72 18.5384 18.7183 18.5388 18.7153C18.5359 18.8235 18.6077 18.9203 18.7204 18.9295C18.8234 18.9379 18.9317 18.8561 18.9346 18.7478C18.9366 18.6758 18.9218 18.6176 18.8968 18.551Z" fill="white"/>
<path d="M18.537 18.7218C18.5373 18.725 18.5378 18.7281 18.5382 18.7311C18.5382 18.7288 18.5382 18.7257 18.5384 18.7227C18.5185 18.6692 18.5337 18.7083 18.537 18.7218Z" fill="white"/>
<path d="M18.5381 18.7305C18.5378 18.7598 18.5395 18.7457 18.5381 18.7305V18.7305Z" fill="white"/>
<path d="M28.3508 19.0751C28.1747 21.2281 26.2862 22.8312 24.1328 22.6549C21.9797 22.4785 20.3772 20.5899 20.5533 18.4367C20.7297 16.2835 22.6178 14.6809 24.7712 14.857C26.9247 15.0335 28.5272 16.9217 28.3508 19.0751Z" fill="white"/>
<path d="M27.0785 19.0446C26.9481 20.6369 25.5522 21.8219 23.9596 21.6916C22.3671 21.5612 21.1823 20.1652 21.3125 18.5726C21.4429 16.9807 22.8393 15.7953 24.4315 15.9258C26.0238 16.0562 27.2089 17.4526 27.0785 19.0446Z" fill="#074785"/>
<path d="M26.6054 17.7684C26.3058 17.2917 25.93 16.8929 25.4081 16.6626C25.1731 16.5587 25.0387 16.9327 25.2715 17.0356C25.6908 17.2206 26.0065 17.5571 26.2471 17.9404C26.3817 18.1545 26.7416 17.9859 26.6054 17.7684Z" fill="white"/>
<path d="M24.7943 16.3727C24.7334 16.3553 24.6733 16.3357 24.6125 16.3182C24.5087 16.2879 24.3966 16.3296 24.3579 16.4364C24.3228 16.5328 24.3723 16.6609 24.4759 16.691C24.5368 16.7086 24.5969 16.7282 24.6575 16.7457C24.7613 16.7757 24.8736 16.7342 24.9126 16.6275C24.9476 16.5311 24.8983 16.4028 24.7943 16.3727Z" fill="white"/>
<path d="M26.8391 18.4789C26.8011 18.3772 26.6652 18.3418 26.5742 18.3857C26.4706 18.4353 26.4434 18.5486 26.4809 18.65C26.4809 18.6475 26.4811 18.6457 26.4809 18.6429C26.4784 18.7511 26.5502 18.8479 26.6627 18.8572C26.766 18.8656 26.8742 18.7838 26.8767 18.6754C26.8787 18.6039 26.864 18.5453 26.8391 18.4789Z" fill="white"/>
<path d="M26.4791 18.6494C26.4798 18.6523 26.4801 18.6558 26.4805 18.6591C26.4803 18.6563 26.4803 18.6533 26.4808 18.6504C26.461 18.5969 26.4759 18.6361 26.4791 18.6494Z" fill="white"/>
<path d="M26.4805 18.6582C26.4801 18.6875 26.4822 18.673 26.4805 18.6582V18.6582Z" fill="white"/>
<path fill-rule="evenodd" clip-rule="evenodd" d="M18.3165 25.934C17.8605 25.5942 17.5206 24.9377 17.4653 24.3808C17.4179 23.9027 17.416 23.4119 17.6995 22.9958C17.9839 22.5792 18.4618 22.3329 18.9661 22.4069C19.2598 22.45 19.536 22.5433 19.7763 22.7172C20.1052 22.9555 20.2979 22.7643 20.5573 22.5347C20.8033 22.3177 21.0494 22.1033 21.3868 22.0551C21.9821 21.9698 22.607 22.4363 22.8608 22.9326C23.1419 23.4824 23.0877 24.094 22.9415 24.6748C22.8608 24.9946 22.6384 25.2791 22.4805 25.5795C21.0416 25.1012 19.6497 25.1782 18.3165 25.934Z" fill="#074785"/>
<path fill-rule="evenodd" clip-rule="evenodd" d="M18.3164 25.9328C19.6942 24.6235 20.8543 24.5247 22.4803 25.5783C21.3102 27.0106 19.7505 27.1435 18.3164 25.9328Z" fill="#FD6085"/>
<path fill-rule="evenodd" clip-rule="evenodd" d="M2.45268 15.9525C2.04166 15.5169 1.36627 16.1544 1.77736 16.59C2.18822 17.0253 2.86346 16.3881 2.45268 15.9525Z" fill="white"/>
<path fill-rule="evenodd" clip-rule="evenodd" d="M7.70567 20.7099C6.39005 19.5003 5.04895 18.3191 3.73341 17.1092C3.30294 16.7138 2.68856 17.381 3.11903 17.7769C4.43473 18.9862 5.77598 20.1678 7.09137 21.377C7.52216 21.7728 8.1363 21.1055 7.70567 20.7099Z" fill="white"/>
<path fill-rule="evenodd" clip-rule="evenodd" d="M29.0703 35.4991C27.5331 34.5875 25.977 33.7091 24.4398 32.7971C23.937 32.4993 23.4737 33.2789 23.9766 33.5772C25.5141 34.4887 27.0704 35.3676 28.6073 36.2788C29.1105 36.5771 29.5735 35.7974 29.0703 35.4991Z" fill="#FFA4AC"/>
<path fill-rule="evenodd" clip-rule="evenodd" d="M30.6314 36.3903C30.1508 36.0575 29.634 36.8027 30.1147 37.1358C30.5952 37.4688 31.1122 36.7235 30.6314 36.3903Z" fill="#FFA4AC"/>
<path fill-rule="evenodd" clip-rule="evenodd" d="M36.0316 17.3321C34.6845 18.5064 33.3626 19.7092 32.0151 20.8832C31.5747 21.2674 32.17 21.9517 32.6108 21.5673C33.9579 20.3932 35.2801 19.1904 36.627 18.016C37.0679 17.632 36.4725 16.948 36.0316 17.3321Z" fill="white"/>
<path fill-rule="evenodd" clip-rule="evenodd" d="M37.3677 16.1293C36.9007 16.4812 37.4466 17.2053 37.9135 16.8532C38.3805 16.5013 37.8345 15.7771 37.3677 16.1293Z" fill="white"/>
<path fill-rule="evenodd" clip-rule="evenodd" d="M14.214 33.7012C12.6291 34.5265 11.0618 35.3853 9.47652 36.2106C8.95824 36.4808 9.37652 37.2855 9.89519 37.0154C11.4802 36.1901 13.0475 35.331 14.6324 34.5058C15.1512 34.2357 14.7329 33.431 14.214 33.7012Z" fill="white"/>
<path fill-rule="evenodd" clip-rule="evenodd" d="M15.7956 32.8454C15.2594 33.0779 15.62 33.9101 16.1565 33.6775C16.6929 33.4447 16.3322 32.6126 15.7956 32.8454Z" fill="white"/>
<path fill-rule="evenodd" clip-rule="evenodd" d="M20.9882 3.33068C20.7891 2.76591 19.9132 3.07466 20.1122 3.63935C20.311 4.20404 21.1868 3.8956 20.9882 3.33068Z" fill="#FFA4AC"/>
<path fill-rule="evenodd" clip-rule="evenodd" d="M23.8596 9.80918C23.1477 8.16996 22.4012 6.54637 21.6894 4.90684C21.4562 4.37074 20.6243 4.73145 20.8571 5.26777C21.569 6.90684 22.3157 8.53082 23.0275 10.1698C23.2607 10.7063 24.0927 10.3453 23.8596 9.80918Z" fill="#FFA4AC"/>
<path d="M28.2817 30.2087C28.1942 30.1015 28.0183 28.5994 27.8592 28.6114C27.6993 28.6237 27.56 30.1134 27.4854 30.2115C27.3356 30.4083 26.2401 30.5476 26.2491 30.7387C26.258 30.9292 27.3338 31.0191 27.4859 31.2051C27.5707 31.309 27.7489 32.8151 27.9086 32.8035C28.0684 32.7915 28.2049 31.3062 28.2825 31.2045C28.4272 31.0144 29.531 30.8677 29.5222 30.6761C29.5134 30.4844 28.4281 30.3885 28.2817 30.2087Z" fill="white"/>
<path d="M19.9644 12.0467C19.8769 11.9395 19.7013 10.4373 19.5418 10.4493C19.3819 10.4618 19.2429 11.9516 19.1681 12.0495C19.0183 12.2463 17.9227 12.3859 17.9317 12.5766C17.9408 12.7671 19.0167 12.8571 19.1685 13.043C19.2534 13.1469 19.4318 14.653 19.5913 14.6414C19.7509 14.6296 19.8875 13.1441 19.9652 13.0424C20.1099 12.8524 21.2137 12.7056 21.2048 12.514C21.1962 12.3226 20.1108 12.2264 19.9644 12.0467Z" fill="white"/>
<path d="M19.9885 31.1094C19.4674 31.1094 19.4674 31.9177 19.9885 31.9177C20.5097 31.9177 20.5097 31.1094 19.9885 31.1094Z" fill="white"/>
<path d="M12.055 29.625C11.5337 29.625 11.5337 30.4334 12.055 30.4334C12.5763 30.4334 12.5763 29.625 12.055 29.625Z" fill="white"/>
<path d="M8.73756 16.5273C8.21639 16.5273 8.21639 17.3356 8.73756 17.3356C9.25873 17.3356 9.25873 16.5273 8.73756 16.5273Z" fill="white"/>
<path d="M32.5687 15.8672C32.0474 15.8672 32.0474 16.6754 32.5687 16.6754C33.0902 16.6754 33.0902 15.8672 32.5687 15.8672Z" fill="white"/>
<path d="M18.3518 6.92188C17.8306 6.92188 17.8306 7.73031 18.3518 7.73031C18.8732 7.73031 18.8732 6.92188 18.3518 6.92188Z" fill="white"/>
</svg>
